solid Created by Gmsh
facet normal 0.99503 0.0995702 -0.00112244
  outer loop
    vertex 0.984808 0.173648 0
    vertex 0.991257 0.131947 2.01772
    vertex 0.997777 0.0666354 2.00446
  endloop
endfacet
facet normal 0.996193 0.0871556 -0.00179275
  outer loop
    vertex 0.984808 0.173648 0
    vertex 0.997777 0.0666354 2.00446
    vertex 1 0 0
  endloop
endfacet
facet normal 0.998143 0.0609185 0.000113938
  outer loop
    vertex 1 0 17.5
    vertex 0.999172 0.0406976 2.99834
    vertex 0.996707 0.0810867 2.99338
  endloop
endfacet
facet normal 0.999793 0.020353 0
  outer loop
    vertex 1 0 17.5
    vertex 1 0 3
    vertex 0.999172 0.0406976 2.99834
  endloop
endfacet
facet normal 0.974471 0.224513 -0.000432418
  outer loop
    vertex 0.967278 0.253717 2.06915
    vertex 0.980865 0.19469 2.03946
    vertex 0.984808 0.173648 0
  endloop
endfacet
facet normal 0.965924 0.258819 -0.00183233
  outer loop
    vertex 0.939693 0.34202 0
    vertex 0.967278 0.253717 2.06915
    vertex 0.984808 0.173648 0
  endloop
endfacet
facet normal 0.959557 0.281514 -0.000778887
  outer loop
    vertex 0.939693 0.34202 0
    vertex 0.951351 0.308108 2.10621
    vertex 0.967278 0.253717 2.06915
  endloop
endfacet
facet normal 0.943412 0.331624 0.000117295
  outer loop
    vertex 0.934821 0.355119 2.14802
    vertex 0.951351 0.308108 2.10621
    vertex 0.939693 0.34202 0
  endloop
endfacet
facet normal 0.926915 0.375272 -0.000186289
  outer loop
    vertex 0.918729 0.394888 2.1933
    vertex 0.934821 0.355119 2.14802
    vertex 0.939693 0.34202 0
  endloop
endfacet
facet normal 0.974298 0.225263 6.87811e-005
  outer loop
    vertex 0.984808 0.173648 17.5
    vertex 0.980188 0.198068 2.9591
    vertex 0.96767 0.252219 2.93172
  endloop
endfacet
facet normal 0.985537 0.169461 -2.85021e-005
  outer loop
    vertex 0.984808 0.173648 17.5
    vertex 0.990048 0.14073 2.97979
    vertex 0.980188 0.198068 2.9591
  endloop
endfacet
facet normal 0.993822 0.110983 0.00010706
  outer loop
    vertex 0.984808 0.173648 17.5
    vertex 0.996707 0.0810867 2.99338
    vertex 0.990048 0.14073 2.97979
  endloop
endfacet
facet normal 0.996195 0.0871557 0.000261036
  outer loop
    vertex 0.984808 0.173648 17.5
    vertex 1 0 17.5
    vertex 0.996707 0.0810867 2.99338
  endloop
endfacet
facet normal 0.910487 0.413535 -0.0012656
  outer loop
    vertex 0.90332 0.428967 2.24312
    vertex 0.918729 0.394888 2.1933
    vertex 0.939693 0.34202 0
  endloop
endfacet
facet normal 0.906306 0.422618 -0.00168546
  outer loop
    vertex 0.866025 0.5 0
    vertex 0.90332 0.428967 2.24312
    vertex 0.939693 0.34202 0
  endloop
endfacet
facet normal 0.895902 0.444252 -0.000827377
  outer loop
    vertex 0.866025 0.5 0
    vertex 0.889534 0.456869 2.29685
    vertex 0.90332 0.428967 2.24312
  endloop
endfacet
facet normal 0.883684 0.468084 -0.000254803
  outer loop
    vertex 0.87827 0.478165 2.35385
    vertex 0.889534 0.456869 2.29685
    vertex 0.866025 0.5 0
  endloop
endfacet
facet normal 0.874262 0.485455 -4.46486e-005
  outer loop
    vertex 0.870353 0.492428 2.41331
    vertex 0.87827 0.478165 2.35385
    vertex 0.866025 0.5 0
  endloop
endfacet
facet normal 0.868383 0.495895 -1.34801e-006
  outer loop
    vertex 0.866408 0.499336 2.47424
    vertex 0.870353 0.492428 2.41331
    vertex 0.866025 0.5 0
  endloop
endfacet
facet normal 0.913598 0.406618 0.000152484
  outer loop
    vertex 0.939693 0.34202 17.5
    vertex 0.921302 0.388849 2.81432
    vertex 0.905718 0.42388 2.76519
  endloop
endfacet
facet normal 0.929577 0.368628 1.13374e-005
  outer loop
    vertex 0.939693 0.34202 17.5
    vertex 0.937416 0.348211 2.85882
    vertex 0.921302 0.388849 2.81432
  endloop
endfacet
facet normal 0.945565 0.325433 -9.41198e-006
  outer loop
    vertex 0.939693 0.34202 17.5
    vertex 0.953156 0.302479 2.89813
    vertex 0.937416 0.348211 2.85882
  endloop
endfacet
facet normal 0.960718 0.277527 0.000134284
  outer loop
    vertex 0.939693 0.34202 17.5
    vertex 0.96767 0.252219 2.93172
    vertex 0.953156 0.302479 2.89813
  endloop
endfacet
facet normal 0.965926 0.258819 0.000259605
  outer loop
    vertex 0.939693 0.34202 17.5
    vertex 0.984808 0.173648 17.5
    vertex 0.96767 0.252219 2.93172
  endloop
endfacet
facet normal 0.80957 0.587022 0.00119538
  outer loop
    vertex 0.766044 0.642788 0
    vertex 0.866758 0.498728 2.53564
    vertex 0.866408 0.499336 2.47424
  endloop
endfacet
facet normal 0.819152 0.573576 2.71237e-005
  outer loop
    vertex 0.766044 0.642788 0
    vertex 0.866408 0.499336 2.47424
    vertex 0.866025 0.5 0
  endloop
endfacet
facet normal 0.869074 0.494683 5.29121e-007
  outer loop
    vertex 0.866025 0.5 17.5
    vertex 0.871373 0.49062 2.59639
    vertex 0.866758 0.498728 2.53564
  endloop
endfacet
facet normal 0.875644 0.482958 1.02659e-005
  outer loop
    vertex 0.866025 0.5 17.5
    vertex 0.879879 0.475197 2.65552
    vertex 0.871373 0.49062 2.59639
  endloop
endfacet
facet normal 0.885761 0.464141 5.11471e-005
  outer loop
    vertex 0.866025 0.5 17.5
    vertex 0.891608 0.452809 2.71205
    vertex 0.879879 0.475197 2.65552
  endloop
endfacet
facet normal 0.898667 0.438631 0.000154882
  outer loop
    vertex 0.866025 0.5 17.5
    vertex 0.905718 0.42388 2.76519
    vertex 0.891608 0.452809 2.71205
  endloop
endfacet
facet normal 0.906308 0.422618 0.000258187
  outer loop
    vertex 0.866025 0.5 17.5
    vertex 0.939693 0.34202 17.5
    vertex 0.905718 0.42388 2.76519
  endloop
endfacet
facet normal 0.819152 0.573576 -8.61938e-006
  outer loop
    vertex 0.766044 0.642788 17.5
    vertex 0.866025 0.5 17.5
    vertex 0.866758 0.498728 2.53564
  endloop
endfacet
facet normal 0.819573 0.572975 0
  outer loop
    vertex 0.766044 0.642788 17.5
    vertex 0.866758 0.498728 2.53564
    vertex 0.766044 0.642788 0
  endloop
endfacet
facet normal 0.707107 0.707107 0
  outer loop
    vertex 0.642788 0.766044 17.5
    vertex 0.766044 0.642788 0
    vertex 0.642788 0.766044 0
  endloop
endfacet
facet normal 0.707107 0.707107 0
  outer loop
    vertex 0.642788 0.766044 17.5
    vertex 0.766044 0.642788 17.5
    vertex 0.766044 0.642788 0
  endloop
endfacet
facet normal 0.573576 0.819152 0
  outer loop
    vertex 0.5 0.866025 17.5
    vertex 0.642788 0.766044 0
    vertex 0.5 0.866025 0
  endloop
endfacet
facet normal 0.573576 0.819152 0
  outer loop
    vertex 0.5 0.866025 17.5
    vertex 0.642788 0.766044 17.5
    vertex 0.642788 0.766044 0
  endloop
endfacet
facet normal 0.422618 0.906308 0
  outer loop
    vertex 0.34202 0.939693 17.5
    vertex 0.5 0.866025 0
    vertex 0.34202 0.939693 0
  endloop
endfacet
facet normal 0.258819 0.965926 0
  outer loop
    vertex 0.34202 0.939693 17.5
    vertex 0.34202 0.939693 0
    vertex 0.173648 0.984808 0
  endloop
endfacet
facet normal 0.422618 0.906308 0
  outer loop
    vertex 0.34202 0.939693 17.5
    vertex 0.5 0.866025 17.5
    vertex 0.5 0.866025 0
  endloop
endfacet
facet normal 0.258819 0.965926 0
  outer loop
    vertex 0.173648 0.984808 17.5
    vertex 0.34202 0.939693 17.5
    vertex 0.173648 0.984808 0
  endloop
endfacet
facet normal 0.0871557 0.996195 0
  outer loop
    vertex 6.12303e-017 1 17.5
    vertex 0.173648 0.984808 0
    vertex 6.12303e-017 1 0
  endloop
endfacet
facet normal 0.0871557 0.996195 0
  outer loop
    vertex 6.12303e-017 1 17.5
    vertex 0.173648 0.984808 17.5
    vertex 0.173648 0.984808 0
  endloop
endfacet
facet normal -0.0871557 0.996195 0
  outer loop
    vertex -0.173648 0.984808 17.5
    vertex 6.12303e-017 1 0
    vertex -0.173648 0.984808 0
  endloop
endfacet
facet normal -0.0871557 0.996195 0
  outer loop
    vertex -0.173648 0.984808 17.5
    vertex 6.12303e-017 1 17.5
    vertex 6.12303e-017 1 0
  endloop
endfacet
facet normal -0.258819 0.965926 0
  outer loop
    vertex -0.34202 0.939693 17.5
    vertex -0.173648 0.984808 0
    vertex -0.34202 0.939693 0
  endloop
endfacet
facet normal -0.258819 0.965926 0
  outer loop
    vertex -0.34202 0.939693 17.5
    vertex -0.173648 0.984808 17.5
    vertex -0.173648 0.984808 0
  endloop
endfacet
facet normal -0.422618 0.906308 0
  outer loop
    vertex -0.5 0.866025 17.5
    vertex -0.34202 0.939693 0
    vertex -0.5 0.866025 0
  endloop
endfacet
facet normal -0.573576 0.819152 0
  outer loop
    vertex -0.5 0.866025 17.5
    vertex -0.5 0.866025 0
    vertex -0.642788 0.766044 0
  endloop
endfacet
facet normal -0.422618 0.906308 0
  outer loop
    vertex -0.5 0.866025 17.5
    vertex -0.34202 0.939693 17.5
    vertex -0.34202 0.939693 0
  endloop
endfacet
facet normal -0.573576 0.819152 0
  outer loop
    vertex -0.642788 0.766044 17.5
    vertex -0.5 0.866025 17.5
    vertex -0.642788 0.766044 0
  endloop
endfacet
facet normal -0.707107 0.707107 0
  outer loop
    vertex -0.766044 0.642788 17.5
    vertex -0.642788 0.766044 0
    vertex -0.766044 0.642788 0
  endloop
endfacet
facet normal -0.707107 0.707107 0
  outer loop
    vertex -0.766044 0.642788 17.5
    vertex -0.642788 0.766044 17.5
    vertex -0.642788 0.766044 0
  endloop
endfacet
facet normal -0.819152 0.573576 8.61938e-006
  outer loop
    vertex -0.866758 0.498728 14.9644
    vertex -0.766044 0.642788 0
    vertex -0.866025 0.5 0
  endloop
endfacet
facet normal -0.819573 0.572975 0
  outer loop
    vertex -0.866758 0.498728 14.9644
    vertex -0.766044 0.642788 17.5
    vertex -0.766044 0.642788 0
  endloop
endfacet
facet normal -0.80957 0.587022 -0.00119538
  outer loop
    vertex -0.866408 0.499336 15.0258
    vertex -0.766044 0.642788 17.5
    vertex -0.866758 0.498728 14.9644
  endloop
endfacet
facet normal -0.869074 0.494683 -5.29121e-007
  outer loop
    vertex -0.871373 0.49062 14.9036
    vertex -0.866758 0.498728 14.9644
    vertex -0.866025 0.5 0
  endloop
endfacet
facet normal -0.875644 0.482958 -1.02659e-005
  outer loop
    vertex -0.879879 0.475197 14.8445
    vertex -0.871373 0.49062 14.9036
    vertex -0.866025 0.5 0
  endloop
endfacet
facet normal -0.819152 0.573576 -2.71237e-005
  outer loop
    vertex -0.866025 0.5 17.5
    vertex -0.766044 0.642788 17.5
    vertex -0.866408 0.499336 15.0258
  endloop
endfacet
facet normal -0.874262 0.485455 4.46486e-005
  outer loop
    vertex -0.866025 0.5 17.5
    vertex -0.870353 0.492428 15.0867
    vertex -0.87827 0.478165 15.1461
  endloop
endfacet
facet normal -0.868383 0.495895 1.34801e-006
  outer loop
    vertex -0.866025 0.5 17.5
    vertex -0.866408 0.499336 15.0258
    vertex -0.870353 0.492428 15.0867
  endloop
endfacet
facet normal -0.885761 0.464141 -5.11471e-005
  outer loop
    vertex -0.891608 0.452809 14.788
    vertex -0.879879 0.475197 14.8445
    vertex -0.866025 0.5 0
  endloop
endfacet
facet normal -0.883684 0.468084 0.000254803
  outer loop
    vertex -0.889534 0.456869 15.2032
    vertex -0.866025 0.5 17.5
    vertex -0.87827 0.478165 15.1461
  endloop
endfacet
facet normal -0.898667 0.438631 -0.000154882
  outer loop
    vertex -0.905718 0.42388 14.7348
    vertex -0.891608 0.452809 14.788
    vertex -0.866025 0.5 0
  endloop
endfacet
facet normal -0.906308 0.422618 -0.000258187
  outer loop
    vertex -0.905718 0.42388 14.7348
    vertex -0.866025 0.5 0
    vertex -0.939693 0.34202 0
  endloop
endfacet
facet normal -0.895902 0.444252 0.000827377
  outer loop
    vertex -0.90332 0.428967 15.2569
    vertex -0.866025 0.5 17.5
    vertex -0.889534 0.456869 15.2032
  endloop
endfacet
facet normal -0.913598 0.406618 -0.000152484
  outer loop
    vertex -0.921302 0.388849 14.6857
    vertex -0.905718 0.42388 14.7348
    vertex -0.939693 0.34202 0
  endloop
endfacet
facet normal -0.929577 0.368628 -1.13374e-005
  outer loop
    vertex -0.937416 0.348211 14.6412
    vertex -0.921302 0.388849 14.6857
    vertex -0.939693 0.34202 0
  endloop
endfacet
facet normal -0.945565 0.325433 9.41198e-006
  outer loop
    vertex -0.953156 0.302479 14.6019
    vertex -0.937416 0.348211 14.6412
    vertex -0.939693 0.34202 0
  endloop
endfacet
facet normal -0.926915 0.375272 0.000186289
  outer loop
    vertex -0.939693 0.34202 17.5
    vertex -0.918729 0.394888 15.3067
    vertex -0.934821 0.355119 15.352
  endloop
endfacet
facet normal -0.910487 0.413535 0.0012656
  outer loop
    vertex -0.939693 0.34202 17.5
    vertex -0.90332 0.428967 15.2569
    vertex -0.918729 0.394888 15.3067
  endloop
endfacet
facet normal -0.906306 0.422618 0.00168546
  outer loop
    vertex -0.939693 0.34202 17.5
    vertex -0.866025 0.5 17.5
    vertex -0.90332 0.428967 15.2569
  endloop
endfacet
facet normal -0.943412 0.331624 -0.000117295
  outer loop
    vertex -0.951351 0.308108 15.3938
    vertex -0.939693 0.34202 17.5
    vertex -0.934821 0.355119 15.352
  endloop
endfacet
facet normal -0.965926 0.258819 -0.000259605
  outer loop
    vertex -0.96767 0.252219 14.5683
    vertex -0.939693 0.34202 0
    vertex -0.984808 0.173648 0
  endloop
endfacet
facet normal -0.960718 0.277527 -0.000134284
  outer loop
    vertex -0.96767 0.252219 14.5683
    vertex -0.953156 0.302479 14.6019
    vertex -0.939693 0.34202 0
  endloop
endfacet
facet normal -0.959557 0.281514 0.000778887
  outer loop
    vertex -0.967278 0.253717 15.4308
    vertex -0.939693 0.34202 17.5
    vertex -0.951351 0.308108 15.3938
  endloop
endfacet
facet normal -0.974298 0.225263 -6.87811e-005
  outer loop
    vertex -0.980188 0.198068 14.5409
    vertex -0.96767 0.252219 14.5683
    vertex -0.984808 0.173648 0
  endloop
endfacet
facet normal -0.985537 0.169461 2.85021e-005
  outer loop
    vertex -0.990048 0.14073 14.5202
    vertex -0.980188 0.198068 14.5409
    vertex -0.984808 0.173648 0
  endloop
endfacet
facet normal -0.974471 0.224513 0.000432418
  outer loop
    vertex -0.984808 0.173648 17.5
    vertex -0.967278 0.253717 15.4308
    vertex -0.980865 0.19469 15.4605
  endloop
endfacet
facet normal -0.965924 0.258819 0.00183233
  outer loop
    vertex -0.984808 0.173648 17.5
    vertex -0.939693 0.34202 17.5
    vertex -0.967278 0.253717 15.4308
  endloop
endfacet
facet normal -0.996195 0.0871557 -0.000261036
  outer loop
    vertex -0.996707 0.0810867 14.5066
    vertex -0.984808 0.173648 0
    vertex -1 1.89882e-015 0
  endloop
endfacet
facet normal -0.993822 0.110983 -0.00010706
  outer loop
    vertex -0.996707 0.0810867 14.5066
    vertex -0.990048 0.14073 14.5202
    vertex -0.984808 0.173648 0
  endloop
endfacet
facet normal -0.99503 0.0995702 0.00112244
  outer loop
    vertex -0.997777 0.0666354 15.4955
    vertex -0.984808 0.173648 17.5
    vertex -0.991257 0.131947 15.4823
  endloop
endfacet
facet normal -0.998718 0.0506196 -5.624e-005
  outer loop
    vertex -0.999798 0.0200939 14.5004
    vertex -0.996707 0.0810867 14.5066
    vertex -1 1.89882e-015 0
  endloop
endfacet
facet normal -0.999944 -0.0105808 2.85856e-005
  outer loop
    vertex -0.999149 -0.0412468 14.5017
    vertex -0.999798 0.0200939 14.5004
    vertex -1 1.89882e-015 0
  endloop
endfacet
facet normal -0.996193 0.0871556 0.00179275
  outer loop
    vertex -1 1.89882e-015 17.5
    vertex -0.984808 0.173648 17.5
    vertex -0.997777 0.0666354 15.4955
  endloop
endfacet
facet normal -0.999846 -0.0175306 1.55582e-017
  outer loop
    vertex -0.999385 -0.0350558 15.4988
    vertex -1 1.89882e-015 17.5
    vertex -1 1.22461e-016 15.5
  endloop
endfacet
facet normal -0.998618 -0.0525567 0.000613934
  outer loop
    vertex -0.997553 -0.0699124 15.4951
    vertex -1 1.89882e-015 17.5
    vertex -0.999385 -0.0350558 15.4988
  endloop
endfacet
facet normal -0.996195 -0.0871557 -0.000254703
  outer loop
    vertex -0.994796 -0.101884 14.5105
    vertex -1 1.89882e-015 0
    vertex -0.984808 -0.173648 0
  endloop
endfacet
facet normal -0.997432 -0.0716192 -0.000145172
  outer loop
    vertex -0.994796 -0.101884 14.5105
    vertex -0.999149 -0.0412468 14.5017
    vertex -1 1.89882e-015 0
  endloop
endfacet
facet normal -0.991326 -0.131427 -3.23983e-005
  outer loop
    vertex -0.986981 -0.160837 14.5266
    vertex -0.994796 -0.101884 14.5105
    vertex -0.984808 -0.173648 0
  endloop
endfacet
facet normal -0.981963 -0.189071 1.98382e-005
  outer loop
    vertex -0.976135 -0.217164 14.5496
    vertex -0.986981 -0.160837 14.5266
    vertex -0.984808 -0.173648 0
  endloop
endfacet
facet normal -0.994969 -0.100172 0.00114212
  outer loop
    vertex -0.984808 -0.173648 17.5
    vertex -0.997553 -0.0699124 15.4951
    vertex -0.99153 -0.129879 15.4828
  endloop
endfacet
facet normal -0.996193 -0.0871556 0.00182338
  outer loop
    vertex -0.984808 -0.173648 17.5
    vertex -1 1.89882e-015 17.5
    vertex -0.997553 -0.0699124 15.4951
  endloop
endfacet
facet normal -0.976546 -0.215309 0.000247984
  outer loop
    vertex -0.970149 -0.24251 15.4373
    vertex -0.984808 -0.173648 17.5
    vertex -0.982224 -0.187713 15.4634
  endloop
endfacet
facet normal -0.965926 -0.258819 -0.00025636
  outer loop
    vertex -0.962847 -0.270047 14.5792
    vertex -0.984808 -0.173648 0
    vertex -0.939693 -0.34202 0
  endloop
endfacet
facet normal -0.969832 -0.243776 -0.00015101
  outer loop
    vertex -0.962847 -0.270047 14.5792
    vertex -0.976135 -0.217164 14.5496
    vertex -0.984808 -0.173648 0
  endloop
endfacet
facet normal -0.95563 -0.294569 -6.35237e-005
  outer loop
    vertex -0.947817 -0.318814 14.6148
    vertex -0.962847 -0.270047 14.5792
    vertex -0.939693 -0.34202 0
  endloop
endfacet
facet normal -0.940097 -0.340906 1.86893e-005
  outer loop
    vertex -0.93185 -0.362843 14.656
    vertex -0.947817 -0.318814 14.6148
    vertex -0.939693 -0.34202 0
  endloop
endfacet
facet normal -0.94844 -0.316957 2.38236e-005
  outer loop
    vertex -0.939693 -0.34202 17.5
    vertex -0.955948 -0.293537 15.4048
    vertex -0.940371 -0.34015 15.3665
  endloop
endfacet
facet normal -0.963179 -0.268856 0.0012512
  outer loop
    vertex -0.939693 -0.34202 17.5
    vertex -0.970149 -0.24251 15.4373
    vertex -0.955948 -0.293537 15.4048
  endloop
endfacet
facet normal -0.965924 -0.258819 0.00177597
  outer loop
    vertex -0.939693 -0.34202 17.5
    vertex -0.984808 -0.173648 17.5
    vertex -0.970149 -0.24251 15.4373
  endloop
endfacet
facet normal -0.924014 -0.382358 -4.88097e-005
  outer loop
    vertex -0.915813 -0.401605 14.7022
    vertex -0.93185 -0.362843 14.656
    vertex -0.939693 -0.34202 0
  endloop
endfacet
facet normal -0.916157 -0.400819 0.000822779
  outer loop
    vertex -0.908507 -0.41787 15.2746
    vertex -0.939693 -0.34202 17.5
    vertex -0.92426 -0.381765 15.3229
  endloop
endfacet
facet normal -0.908244 -0.418441 -0.000220665
  outer loop
    vertex -0.900633 -0.434581 14.7527
    vertex -0.915813 -0.401605 14.7022
    vertex -0.939693 -0.34202 0
  endloop
endfacet
facet normal -0.906308 -0.422618 -0.000251997
  outer loop
    vertex -0.900633 -0.434581 14.7527
    vertex -0.939693 -0.34202 0
    vertex -0.866025 -0.5 0
  endloop
endfacet
facet normal -0.893949 -0.448169 -0.000109705
  outer loop
    vertex -0.887245 -0.461299 14.8071
    vertex -0.900633 -0.434581 14.7527
    vertex -0.866025 -0.5 0
  endloop
endfacet
facet normal -0.881911 -0.471417 -3.16921e-005
  outer loop
    vertex -0.876539 -0.481332 14.8646
    vertex -0.887245 -0.461299 14.8071
    vertex -0.866025 -0.5 0
  endloop
endfacet
facet normal -0.872941 -0.487826 -4.74035e-006
  outer loop
    vertex -0.869314 -0.49426 14.9245
    vertex -0.876539 -0.481332 14.8646
    vertex -0.866025 -0.5 0
  endloop
endfacet
facet normal -0.867734 -0.497028 -5.32634e-008
  outer loop
    vertex -0.866146 -0.499791 14.9855
    vertex -0.869314 -0.49426 14.9245
    vertex -0.866025 -0.5 0
  endloop
endfacet
facet normal -0.819152 -0.573576 1.40549e-006
  outer loop
    vertex -0.866146 -0.499791 14.9855
    vertex -0.866025 -0.5 0
    vertex -0.766044 -0.642788 0
  endloop
endfacet
facet normal -0.906306 -0.422618 0.00170376
  outer loop
    vertex -0.866025 -0.5 17.5
    vertex -0.939693 -0.34202 17.5
    vertex -0.908507 -0.41787 15.2746
  endloop
endfacet
facet normal -0.866719 -0.498796 1.21782e-007
  outer loop
    vertex -0.866025 -0.5 17.5
    vertex -0.867295 -0.497795 15.0469
    vertex -0.866146 -0.499791 14.9855
  endloop
endfacet
facet normal -0.869973 -0.493099 6.92684e-006
  outer loop
    vertex -0.866025 -0.5 17.5
    vertex -0.872664 -0.488321 15.1074
    vertex -0.867295 -0.497795 15.0469
  endloop
endfacet
facet normal -0.87715 -0.480216 8.97285e-005
  outer loop
    vertex -0.866025 -0.5 17.5
    vertex -0.881822 -0.471583 15.1662
    vertex -0.872664 -0.488321 15.1074
  endloop
endfacet
facet normal -0.88763 -0.460558 0.000400016
  outer loop
    vertex -0.866025 -0.5 17.5
    vertex -0.894055 -0.447958 15.2221
    vertex -0.881822 -0.471583 15.1662
  endloop
endfacet
facet normal -0.90062 -0.434606 0.00115278
  outer loop
    vertex -0.866025 -0.5 17.5
    vertex -0.908507 -0.41787 15.2746
    vertex -0.894055 -0.447958 15.2221
  endloop
endfacet
facet normal -0.819221 -0.573478 -0
  outer loop
    vertex -0.766044 -0.642788 17.5
    vertex -0.866146 -0.499791 14.9855
    vertex -0.766044 -0.642788 0
  endloop
endfacet
facet normal -0.819152 -0.573576 -8.37638e-006
  outer loop
    vertex -0.766044 -0.642788 17.5
    vertex -0.866025 -0.5 17.5
    vertex -0.866146 -0.499791 14.9855
  endloop
endfacet
facet normal -0.707107 -0.707107 0
  outer loop
    vertex -0.642788 -0.766044 17.5
    vertex -0.766044 -0.642788 17.5
    vertex -0.766044 -0.642788 0
  endloop
endfacet
facet normal -0.707107 -0.707107 -0
  outer loop
    vertex -0.642788 -0.766044 17.5
    vertex -0.766044 -0.642788 0
    vertex -0.642788 -0.766044 0
  endloop
endfacet
facet normal -0.573576 -0.819152 -0
  outer loop
    vertex -0.642788 -0.766044 17.5
    vertex -0.642788 -0.766044 0
    vertex -0.5 -0.866025 0
  endloop
endfacet
facet normal -0.573576 -0.819152 -0
  outer loop
    vertex -0.5 -0.866025 17.5
    vertex -0.642788 -0.766044 17.5
    vertex -0.5 -0.866025 0
  endloop
endfacet
facet normal -0.422618 -0.906308 -0
  outer loop
    vertex -0.34202 -0.939693 17.5
    vertex -0.5 -0.866025 0
    vertex -0.34202 -0.939693 0
  endloop
endfacet
facet normal -0.258819 -0.965926 -0
  outer loop
    vertex -0.34202 -0.939693 17.5
    vertex -0.34202 -0.939693 0
    vertex -0.173648 -0.984808 0
  endloop
endfacet
facet normal -0.422618 -0.906308 0
  outer loop
    vertex -0.34202 -0.939693 17.5
    vertex -0.5 -0.866025 17.5
    vertex -0.5 -0.866025 0
  endloop
endfacet
facet normal -0.258819 -0.965926 -0
  outer loop
    vertex -0.173648 -0.984808 17.5
    vertex -0.34202 -0.939693 17.5
    vertex -0.173648 -0.984808 0
  endloop
endfacet
facet normal -0.0871557 -0.996195 -0
  outer loop
    vertex -2.84823e-015 -1 17.5
    vertex -0.173648 -0.984808 0
    vertex -2.84823e-015 -1 0
  endloop
endfacet
facet normal -0.0871557 -0.996195 0
  outer loop
    vertex -2.84823e-015 -1 17.5
    vertex -0.173648 -0.984808 17.5
    vertex -0.173648 -0.984808 0
  endloop
endfacet
facet normal 0.0871557 -0.996195 0
  outer loop
    vertex 0.173648 -0.984808 17.5
    vertex -2.84823e-015 -1 0
    vertex 0.173648 -0.984808 0
  endloop
endfacet
facet normal 0.0871557 -0.996195 0
  outer loop
    vertex 0.173648 -0.984808 17.5
    vertex -2.84823e-015 -1 17.5
    vertex -2.84823e-015 -1 0
  endloop
endfacet
facet normal 0.258819 -0.965926 0
  outer loop
    vertex 0.34202 -0.939693 17.5
    vertex 0.173648 -0.984808 0
    vertex 0.34202 -0.939693 0
  endloop
endfacet
facet normal 0.422618 -0.906308 0
  outer loop
    vertex 0.34202 -0.939693 17.5
    vertex 0.34202 -0.939693 0
    vertex 0.5 -0.866025 0
  endloop
endfacet
facet normal 0.258819 -0.965926 0
  outer loop
    vertex 0.34202 -0.939693 17.5
    vertex 0.173648 -0.984808 17.5
    vertex 0.173648 -0.984808 0
  endloop
endfacet
facet normal 0.422618 -0.906308 0
  outer loop
    vertex 0.5 -0.866025 17.5
    vertex 0.34202 -0.939693 17.5
    vertex 0.5 -0.866025 0
  endloop
endfacet
facet normal 0.573576 -0.819152 0
  outer loop
    vertex 0.642788 -0.766044 17.5
    vertex 0.5 -0.866025 0
    vertex 0.642788 -0.766044 0
  endloop
endfacet
facet normal 0.573576 -0.819152 0
  outer loop
    vertex 0.642788 -0.766044 17.5
    vertex 0.5 -0.866025 17.5
    vertex 0.5 -0.866025 0
  endloop
endfacet
facet normal 0.819152 -0.573576 2.65704e-005
  outer loop
    vertex 0.866408 -0.499336 2.52576
    vertex 0.766044 -0.642788 0
    vertex 0.866025 -0.5 0
  endloop
endfacet
facet normal 0.866574 -0.499049 -2.16965e-007
  outer loop
    vertex 0.866408 -0.499336 2.52576
    vertex 0.866025 -0.5 0
    vertex 0.866758 -0.498728 2.46436
  endloop
endfacet
facet normal 0.869065 -0.494698 -3.20263e-006
  outer loop
    vertex 0.871373 -0.49062 2.40361
    vertex 0.866758 -0.498728 2.46436
    vertex 0.866025 -0.5 0
  endloop
endfacet
facet normal 0.875558 -0.483112 -6.28611e-005
  outer loop
    vertex 0.879879 -0.475197 2.34448
    vertex 0.871373 -0.49062 2.40361
    vertex 0.866025 -0.5 0
  endloop
endfacet
facet normal 0.885485 -0.464667 -0.000316655
  outer loop
    vertex 0.891608 -0.452809 2.28795
    vertex 0.879879 -0.475197 2.34448
    vertex 0.866025 -0.5 0
  endloop
endfacet
facet normal 0.707107 -0.707107 0
  outer loop
    vertex 0.766044 -0.642788 17.5
    vertex 0.642788 -0.766044 0
    vertex 0.766044 -0.642788 0
  endloop
endfacet
facet normal 0.707107 -0.707107 0
  outer loop
    vertex 0.766044 -0.642788 17.5
    vertex 0.642788 -0.766044 17.5
    vertex 0.642788 -0.766044 0
  endloop
endfacet
facet normal 0.819372 -0.573262 0
  outer loop
    vertex 0.766044 -0.642788 17.5
    vertex 0.766044 -0.642788 0
    vertex 0.866408 -0.499336 2.52576
  endloop
endfacet
facet normal 0.898076 -0.439839 -0.00096954
  outer loop
    vertex 0.905718 -0.42388 2.23481
    vertex 0.891608 -0.452809 2.28795
    vertex 0.866025 -0.5 0
  endloop
endfacet
facet normal 0.913129 -0.407669 -0.00105101
  outer loop
    vertex 0.939693 -0.34202 0
    vertex 0.921302 -0.388848 2.18568
    vertex 0.905718 -0.42388 2.23481
  endloop
endfacet
facet normal 0.906306 -0.422618 -0.0017023
  outer loop
    vertex 0.939693 -0.34202 0
    vertex 0.905718 -0.42388 2.23481
    vertex 0.866025 -0.5 0
  endloop
endfacet
facet normal 0.929552 -0.368691 -7.7728e-005
  outer loop
    vertex 0.937416 -0.34821 2.14118
    vertex 0.921302 -0.388848 2.18568
    vertex 0.939693 -0.34202 0
  endloop
endfacet
facet normal 0.94558 -0.32539 6.44934e-005
  outer loop
    vertex 0.953156 -0.302479 2.10187
    vertex 0.937416 -0.34821 2.14118
    vertex 0.939693 -0.34202 0
  endloop
endfacet
facet normal 0.896434 -0.443176 0.00013241
  outer loop
    vertex 0.866025 -0.5 17.5
    vertex 0.889534 -0.456869 2.70315
    vertex 0.90332 -0.428967 2.75688
  endloop
endfacet
facet normal 0.883921 -0.467637 4.12297e-005
  outer loop
    vertex 0.866025 -0.5 17.5
    vertex 0.87827 -0.478165 2.64615
    vertex 0.889534 -0.456869 2.70315
  endloop
endfacet
facet normal 0.874328 -0.485336 7.30478e-006
  outer loop
    vertex 0.866025 -0.5 17.5
    vertex 0.870353 -0.492428 2.58669
    vertex 0.87827 -0.478165 2.64615
  endloop
endfacet
facet normal 0.868387 -0.495887 2.23178e-007
  outer loop
    vertex 0.866025 -0.5 17.5
    vertex 0.866408 -0.499336 2.52576
    vertex 0.870353 -0.492428 2.58669
  endloop
endfacet
facet normal 0.819152 -0.573576 -4.48173e-006
  outer loop
    vertex 0.866025 -0.5 17.5
    vertex 0.766044 -0.642788 17.5
    vertex 0.866408 -0.499336 2.52576
  endloop
endfacet
facet normal 0.960577 -0.278013 -0.000922845
  outer loop
    vertex 0.96767 -0.252219 2.06828
    vertex 0.953156 -0.302479 2.10187
    vertex 0.939693 -0.34202 0
  endloop
endfacet
facet normal 0.965924 -0.258819 -0.00182857
  outer loop
    vertex 0.984808 -0.173648 0
    vertex 0.96767 -0.252219 2.06828
    vertex 0.939693 -0.34202 0
  endloop
endfacet
facet normal 0.974251 -0.225466 -0.000492572
  outer loop
    vertex 0.980188 -0.198067 2.0409
    vertex 0.96767 -0.252219 2.06828
    vertex 0.984808 -0.173648 0
  endloop
endfacet
facet normal 0.985548 -0.169399 0.000203829
  outer loop
    vertex 0.990048 -0.14073 2.02021
    vertex 0.980188 -0.198067 2.0409
    vertex 0.984808 -0.173648 0
  endloop
endfacet
facet normal 0.95968 -0.281096 0.000113384
  outer loop
    vertex 0.939693 -0.34202 17.5
    vertex 0.951351 -0.308108 2.89379
    vertex 0.967279 -0.253717 2.93085
  endloop
endfacet
facet normal 0.943384 -0.331703 -1.71201e-005
  outer loop
    vertex 0.939693 -0.34202 17.5
    vertex 0.934821 -0.355119 2.85198
    vertex 0.951351 -0.308108 2.89379
  endloop
endfacet
facet normal 0.926978 -0.375116 2.71569e-005
  outer loop
    vertex 0.939693 -0.34202 17.5
    vertex 0.918729 -0.394888 2.8067
    vertex 0.934821 -0.355119 2.85198
  endloop
endfacet
facet normal 0.911083 -0.412222 0.000183344
  outer loop
    vertex 0.939693 -0.34202 17.5
    vertex 0.90332 -0.428967 2.75688
    vertex 0.918729 -0.394888 2.8067
  endloop
endfacet
facet normal 0.906308 -0.422618 0.000256437
  outer loop
    vertex 0.939693 -0.34202 17.5
    vertex 0.866025 -0.5 17.5
    vertex 0.90332 -0.428967 2.75688
  endloop
endfacet
facet normal 0.993806 -0.11113 -0.000767045
  outer loop
    vertex 0.996707 -0.0810859 2.00662
    vertex 0.990048 -0.14073 2.02021
    vertex 0.984808 -0.173648 0
  endloop
endfacet
facet normal 0.996193 -0.0871556 -0.00188713
  outer loop
    vertex 1 -2.44921e-016 0
    vertex 0.996707 -0.0810859 2.00662
    vertex 0.984808 -0.173648 0
  endloop
endfacet
facet normal 0.998137 -0.0610052 -0.000827218
  outer loop
    vertex 1 -2.44921e-016 0
    vertex 0.999172 -0.0406972 2.00166
    vertex 0.996707 -0.0810859 2.00662
  endloop
endfacet
facet normal 0.999793 -0.0203528 0
  outer loop
    vertex 1 -2.44921e-016 2
    vertex 0.999172 -0.0406972 2.00166
    vertex 1 -2.44921e-016 0
  endloop
endfacet
facet normal 0.965926 -0.258819 0.000260233
  outer loop
    vertex 0.984808 -0.173648 17.5
    vertex 0.939693 -0.34202 17.5
    vertex 0.967279 -0.253717 2.93085
  endloop
endfacet
facet normal 0.99505 -0.099376 0.000156568
  outer loop
    vertex 0.984808 -0.173648 17.5
    vertex 0.991257 -0.131947 2.98228
    vertex 0.997777 -0.0666354 2.99554
  endloop
endfacet
facet normal 0.986561 -0.16339 -3.10814e-005
  outer loop
    vertex 0.984808 -0.173648 17.5
    vertex 0.980865 -0.19469 2.96054
    vertex 0.991257 -0.131947 2.98228
  endloop
endfacet
facet normal 0.974512 -0.224335 6.03864e-005
  outer loop
    vertex 0.984808 -0.173648 17.5
    vertex 0.967279 -0.253717 2.93085
    vertex 0.980865 -0.19469 2.96054
  endloop
endfacet
facet normal 0.996195 -0.0871557 0.000247752
  outer loop
    vertex 1 -2.44921e-016 17.5
    vertex 0.984808 -0.173648 17.5
    vertex 0.997777 -0.0666354 2.99554
  endloop
endfacet
facet normal 0.999444 -0.0333362 0
  outer loop
    vertex 1 -2.44921e-016 17.5
    vertex 0.997777 -0.0666354 2.99554
    vertex 1 -2.44921e-016 3
  endloop
endfacet
facet normal -0.999444 0.0333362 -2.96774e-017
  outer loop
    vertex -0.997777 0.0666354 15.4955
    vertex -1 1.22461e-016 15.5
    vertex -1 1.89882e-015 17.5
  endloop
endfacet
facet normal -0.986572 0.163326 -0.000222269
  outer loop
    vertex -0.980865 0.19469 15.4605
    vertex -0.991257 0.131947 15.4823
    vertex -0.984808 0.173648 17.5
  endloop
endfacet
facet normal -0.932555 -0.361029 -1.98602e-005
  outer loop
    vertex -0.940371 -0.34015 15.3665
    vertex -0.92426 -0.381765 15.3229
    vertex -0.939693 -0.34202 17.5
  endloop
endfacet
facet normal -0.987309 -0.158813 -0.000155827
  outer loop
    vertex -0.99153 -0.129879 15.4828
    vertex -0.982224 -0.187713 15.4634
    vertex -0.984808 -0.173648 17.5
  endloop
endfacet
facet normal 0.999444 0.0333362 0
  outer loop
    vertex 0.997777 0.0666354 2.00446
    vertex 1 0 2
    vertex 1 0 0
  endloop
endfacet
facet normal 0.986572 0.163326 0.000222269
  outer loop
    vertex 0.980865 0.19469 2.03946
    vertex 0.991257 0.131947 2.01772
    vertex 0.984808 0.173648 0
  endloop
endfacet
facet normal 0 0.0667845 -0.997767
  outer loop
    vertex 1.5 0 2
    vertex 1 0 2
    vertex 0.997777 0.0666354 2.00446
  endloop
endfacet
facet normal -0.00187384 0.198845 -0.980029
  outer loop
    vertex 1.5 0.0868241 2.0076
    vertex 0.997777 0.0666354 2.00446
    vertex 0.991257 0.131947 2.01772
  endloop
endfacet
facet normal 0.00271683 0.0871554 -0.996191
  outer loop
    vertex 1.5 0.0868241 2.0076
    vertex 1.5 0 2
    vertex 0.997777 0.0666354 2.00446
  endloop
endfacet
facet normal 0.0037263 0.258817 -0.965919
  outer loop
    vertex 1.5 0.17101 2.03015
    vertex 1.5 0.0868241 2.0076
    vertex 0.991257 0.131947 2.01772
  endloop
endfacet
facet normal -0.00202465 0.327059 -0.945002
  outer loop
    vertex 1.5 0.17101 2.03015
    vertex 0.991257 0.131947 2.01772
    vertex 0.980865 0.19469 2.03946
  endloop
endfacet
facet normal 0.00302796 0.422616 -0.906304
  outer loop
    vertex 1.5 0.25 2.06699
    vertex 1.5 0.17101 2.03015
    vertex 0.980865 0.19469 2.03946
  endloop
endfacet
facet normal -0.000499862 0.449298 -0.893382
  outer loop
    vertex 1.5 0.25 2.06699
    vertex 0.980865 0.19469 2.03946
    vertex 0.967278 0.253717 2.06915
  endloop
endfacet
facet normal 0.0005674 0.563159 -0.826348
  outer loop
    vertex 1.5 0.25 2.06699
    vertex 0.967278 0.253717 2.06915
    vertex 0.951351 0.308108 2.10621
  endloop
endfacet
facet normal 0.00218514 0.573575 -0.81915
  outer loop
    vertex 1.5 0.321394 2.11698
    vertex 1.5 0.25 2.06699
    vertex 0.951351 0.308108 2.10621
  endloop
endfacet
facet normal -0.00141704 0.664264 -0.747496
  outer loop
    vertex 1.5 0.321394 2.11698
    vertex 0.951351 0.308108 2.10621
    vertex 0.934821 0.355119 2.14802
  endloop
endfacet
facet normal 0.00335773 0.707103 -0.707103
  outer loop
    vertex 1.5 0.383022 2.17861
    vertex 1.5 0.321394 2.11698
    vertex 0.934821 0.355119 2.14802
  endloop
endfacet
facet normal -0.00135719 0.751133 -0.660149
  outer loop
    vertex 1.5 0.383022 2.17861
    vertex 0.934821 0.355119 2.14802
    vertex 0.918729 0.394888 2.1933
  endloop
endfacet
facet normal 0.00222023 0.81915 -0.573575
  outer loop
    vertex 1.5 0.433013 2.25
    vertex 1.5 0.383022 2.17861
    vertex 0.918729 0.394888 2.1933
  endloop
endfacet
facet normal 0.000910856 0.825491 -0.564415
  outer loop
    vertex 1.5 0.433013 2.25
    vertex 0.918729 0.394888 2.1933
    vertex 0.90332 0.428967 2.24312
  endloop
endfacet
facet normal -0.00070114 0.88739 -0.461019
  outer loop
    vertex 1.5 0.433013 2.25
    vertex 0.90332 0.428967 2.24312
    vertex 0.889534 0.456869 2.29685
  endloop
endfacet
facet normal 0.00298508 0.906304 -0.422616
  outer loop
    vertex 1.5 0.469846 2.32899
    vertex 1.5 0.433013 2.25
    vertex 0.889534 0.456869 2.29685
  endloop
endfacet
facet normal -0.00147324 0.936674 -0.3502
  outer loop
    vertex 1.5 0.469846 2.32899
    vertex 0.889534 0.456869 2.29685
    vertex 0.87827 0.478165 2.35385
  endloop
endfacet
facet normal 0.00257271 0.965923 -0.258818
  outer loop
    vertex 1.5 0.492404 2.41318
    vertex 1.5 0.469846 2.32899
    vertex 0.87827 0.478165 2.35385
  endloop
endfacet
facet normal -1.34003e-005 0.972412 -0.233272
  outer loop
    vertex 1.5 0.492404 2.41318
    vertex 0.87827 0.478165 2.35385
    vertex 0.870353 0.492428 2.41331
  endloop
endfacet
facet normal 1.34987e-005 0.993634 -0.11266
  outer loop
    vertex 1.5 0.492404 2.41318
    vertex 0.870353 0.492428 2.41331
    vertex 0.866408 0.499336 2.47424
  endloop
endfacet
facet normal 0.00249953 0.996192 -0.0871555
  outer loop
    vertex 1.5 0.5 2.5
    vertex 1.5 0.492404 2.41318
    vertex 0.866408 0.499336 2.47424
  endloop
endfacet
facet normal -0.00145066 0.99995 0.00990148
  outer loop
    vertex 1.5 0.5 2.5
    vertex 0.866408 0.499336 2.47424
    vertex 0.866758 0.498728 2.53564
  endloop
endfacet
facet normal 0.00290437 0.99619 0.0871554
  outer loop
    vertex 1.5 0.492404 2.58682
    vertex 1.5 0.5 2.5
    vertex 0.866758 0.498728 2.53564
  endloop
endfacet
facet normal -0.000797716 0.991204 0.132337
  outer loop
    vertex 1.5 0.492404 2.58682
    vertex 0.866758 0.498728 2.53564
    vertex 0.871373 0.49062 2.59639
  endloop
endfacet
facet normal 0.00109427 0.967664 0.252241
  outer loop
    vertex 1.5 0.492404 2.58682
    vertex 0.871373 0.49062 2.59639
    vertex 0.879879 0.475197 2.65552
  endloop
endfacet
facet normal 0.00187128 0.965924 0.258819
  outer loop
    vertex 1.5 0.469846 2.67101
    vertex 1.5 0.492404 2.58682
    vertex 0.879879 0.475197 2.65552
  endloop
endfacet
facet normal -0.00118006 0.929642 0.368463
  outer loop
    vertex 1.5 0.469846 2.67101
    vertex 0.879879 0.475197 2.65552
    vertex 0.891608 0.452809 2.71205
  endloop
endfacet
facet normal 0.00312623 0.906303 0.422616
  outer loop
    vertex 1.5 0.433013 2.75
    vertex 1.5 0.469846 2.67101
    vertex 0.891608 0.452809 2.71205
  endloop
endfacet
facet normal -0.00126781 0.878156 0.478373
  outer loop
    vertex 1.5 0.433013 2.75
    vertex 0.891608 0.452809 2.71205
    vertex 0.905718 0.42388 2.76519
  endloop
endfacet
facet normal 0.00230919 0.814556 0.58008
  outer loop
    vertex 1.5 0.433013 2.75
    vertex 0.905718 0.42388 2.76519
    vertex 0.921302 0.388849 2.81432
  endloop
endfacet
facet normal -0.000812863 0.738254 0.674522
  outer loop
    vertex 1.5 0.383022 2.82139
    vertex 0.921302 0.388849 2.81432
    vertex 0.937416 0.348211 2.85882
  endloop
endfacet
facet normal 0.00123561 0.819151 0.573576
  outer loop
    vertex 1.5 0.383022 2.82139
    vertex 1.5 0.433013 2.75
    vertex 0.921302 0.388849 2.81432
  endloop
endfacet
facet normal -0.00158086 0.651563 0.758593
  outer loop
    vertex 1.5 0.321394 2.88302
    vertex 0.937416 0.348211 2.85882
    vertex 0.953156 0.302479 2.89813
  endloop
endfacet
facet normal 0.00328199 0.707103 0.707103
  outer loop
    vertex 1.5 0.321394 2.88302
    vertex 1.5 0.383022 2.82139
    vertex 0.937416 0.348211 2.85882
  endloop
endfacet
facet normal 0.000304154 0.555776 0.831332
  outer loop
    vertex 1.5 0.25 2.93301
    vertex 0.953156 0.302479 2.89813
    vertex 0.96767 0.252219 2.93172
  endloop
endfacet
facet normal 0.00278942 0.573574 0.819149
  outer loop
    vertex 1.5 0.25 2.93301
    vertex 1.5 0.321394 2.88302
    vertex 0.953156 0.302479 2.89813
  endloop
endfacet
facet normal -0.000280452 0.451066 0.89249
  outer loop
    vertex 1.5 0.25 2.93301
    vertex 0.96767 0.252219 2.93172
    vertex 0.980188 0.198068 2.9591
  endloop
endfacet
facet normal -0.00180133 0.339155 0.940729
  outer loop
    vertex 1.5 0.17101 2.96985
    vertex 0.980188 0.198068 2.9591
    vertex 0.990048 0.14073 2.97979
  endloop
endfacet
facet normal 0.00325501 0.422616 0.906303
  outer loop
    vertex 1.5 0.17101 2.96985
    vertex 1.5 0.25 2.93301
    vertex 0.980188 0.198068 2.9591
  endloop
endfacet
facet normal -0.000639417 0.222165 0.975009
  outer loop
    vertex 1.5 0.0868241 2.9924
    vertex 0.990048 0.14073 2.97979
    vertex 0.996707 0.0810866 2.99338
  endloop
endfacet
facet normal 0.000537431 0.121917 0.99254
  outer loop
    vertex 1.5 0.0868241 2.9924
    vertex 0.996707 0.0810866 2.99338
    vertex 0.999172 0.0406976 2.99834
  endloop
endfacet
facet normal 0.00345991 0.258817 0.96592
  outer loop
    vertex 1.5 0.0868241 2.9924
    vertex 1.5 0.17101 2.96985
    vertex 0.990048 0.14073 2.97979
  endloop
endfacet
facet normal -5.42651e-017 0.0407314 0.99917
  outer loop
    vertex 1.5 7.27364e-016 3
    vertex 0.999172 0.0406976 2.99834
    vertex 1 6.12303e-017 3
  endloop
endfacet
facet normal 8.89748e-017 -0.0667845 0.997767
  outer loop
    vertex 1.5 7.27364e-016 3
    vertex 1 6.12303e-017 3
    vertex 0.997777 -0.0666354 2.99554
  endloop
endfacet
facet normal 0.0037823 0.0871551 0.996188
  outer loop
    vertex 1.5 7.27364e-016 3
    vertex 1.5 0.0868241 2.9924
    vertex 0.999172 0.0406976 2.99834
  endloop
endfacet
facet normal -0.00187384 -0.198844 0.980029
  outer loop
    vertex 1.5 -0.0868241 2.9924
    vertex 0.997777 -0.0666354 2.99554
    vertex 0.991257 -0.131947 2.98228
  endloop
endfacet
facet normal 0.00271684 -0.0871554 0.996191
  outer loop
    vertex 1.5 -0.0868241 2.9924
    vertex 1.5 7.27364e-016 3
    vertex 0.997777 -0.0666354 2.99554
  endloop
endfacet
facet normal -0.00202464 -0.327059 0.945002
  outer loop
    vertex 1.5 -0.17101 2.96985
    vertex 0.991257 -0.131947 2.98228
    vertex 0.980865 -0.19469 2.96054
  endloop
endfacet
facet normal 0.0037263 -0.258817 0.965919
  outer loop
    vertex 1.5 -0.17101 2.96985
    vertex 1.5 -0.0868241 2.9924
    vertex 0.991257 -0.131947 2.98228
  endloop
endfacet
facet normal -0.000499825 -0.449297 0.893382
  outer loop
    vertex 1.5 -0.25 2.93301
    vertex 0.980865 -0.19469 2.96054
    vertex 0.967279 -0.253717 2.93085
  endloop
endfacet
facet normal 0.000567353 -0.563159 0.826349
  outer loop
    vertex 1.5 -0.25 2.93301
    vertex 0.967279 -0.253717 2.93085
    vertex 0.951351 -0.308108 2.89379
  endloop
endfacet
facet normal 0.00302794 -0.422616 0.906304
  outer loop
    vertex 1.5 -0.25 2.93301
    vertex 1.5 -0.17101 2.96985
    vertex 0.980865 -0.19469 2.96054
  endloop
endfacet
facet normal -0.00141706 -0.664264 0.747497
  outer loop
    vertex 1.5 -0.321394 2.88302
    vertex 0.951351 -0.308108 2.89379
    vertex 0.934821 -0.355119 2.85198
  endloop
endfacet
facet normal 0.00218518 -0.573575 0.81915
  outer loop
    vertex 1.5 -0.321394 2.88302
    vertex 1.5 -0.25 2.93301
    vertex 0.951351 -0.308108 2.89379
  endloop
endfacet
facet normal 0.00335773 -0.707103 0.707103
  outer loop
    vertex 1.5 -0.383022 2.82139
    vertex 1.5 -0.321394 2.88302
    vertex 0.934821 -0.355119 2.85198
  endloop
endfacet
facet normal -0.00135718 -0.751133 0.66015
  outer loop
    vertex 1.5 -0.383022 2.82139
    vertex 0.934821 -0.355119 2.85198
    vertex 0.918729 -0.394888 2.8067
  endloop
endfacet
facet normal 0.0022202 -0.81915 0.573575
  outer loop
    vertex 1.5 -0.433013 2.75
    vertex 1.5 -0.383022 2.82139
    vertex 0.918729 -0.394888 2.8067
  endloop
endfacet
facet normal 0.000910891 -0.825491 0.564415
  outer loop
    vertex 1.5 -0.433013 2.75
    vertex 0.918729 -0.394888 2.8067
    vertex 0.90332 -0.428967 2.75688
  endloop
endfacet
facet normal -0.000701161 -0.88739 0.461019
  outer loop
    vertex 1.5 -0.433013 2.75
    vertex 0.90332 -0.428967 2.75688
    vertex 0.889534 -0.456869 2.70315
  endloop
endfacet
facet normal 0.00298508 -0.906304 0.422616
  outer loop
    vertex 1.5 -0.469846 2.67101
    vertex 1.5 -0.433013 2.75
    vertex 0.889534 -0.456869 2.70315
  endloop
endfacet
facet normal -0.00147324 -0.936674 0.350201
  outer loop
    vertex 1.5 -0.469846 2.67101
    vertex 0.889534 -0.456869 2.70315
    vertex 0.87827 -0.478165 2.64615
  endloop
endfacet
facet normal -1.33925e-005 -0.972412 0.233272
  outer loop
    vertex 1.5 -0.492404 2.58682
    vertex 0.87827 -0.478165 2.64615
    vertex 0.870353 -0.492428 2.58669
  endloop
endfacet
facet normal 1.34907e-005 -0.993634 0.11266
  outer loop
    vertex 1.5 -0.492404 2.58682
    vertex 0.870353 -0.492428 2.58669
    vertex 0.866408 -0.499336 2.52576
  endloop
endfacet
facet normal 0.0025727 -0.965923 0.258818
  outer loop
    vertex 1.5 -0.492404 2.58682
    vertex 1.5 -0.469846 2.67101
    vertex 0.87827 -0.478165 2.64615
  endloop
endfacet
facet normal 0.00249953 -0.996192 0.0871555
  outer loop
    vertex 1.5 -0.5 2.5
    vertex 1.5 -0.492404 2.58682
    vertex 0.866408 -0.499336 2.52576
  endloop
endfacet
facet normal -0.00145066 -0.99995 -0.00990151
  outer loop
    vertex 1.5 -0.5 2.5
    vertex 0.866408 -0.499336 2.52576
    vertex 0.866758 -0.498728 2.46436
  endloop
endfacet
facet normal 0.00290437 -0.99619 -0.0871554
  outer loop
    vertex 1.5 -0.492404 2.41318
    vertex 1.5 -0.5 2.5
    vertex 0.866758 -0.498728 2.46436
  endloop
endfacet
facet normal -0.000797725 -0.991204 -0.132337
  outer loop
    vertex 1.5 -0.492404 2.41318
    vertex 0.866758 -0.498728 2.46436
    vertex 0.871373 -0.49062 2.40361
  endloop
endfacet
facet normal 0.00109428 -0.967664 -0.252241
  outer loop
    vertex 1.5 -0.492404 2.41318
    vertex 0.871373 -0.49062 2.40361
    vertex 0.879879 -0.475197 2.34448
  endloop
endfacet
facet normal 0.00187126 -0.965924 -0.258819
  outer loop
    vertex 1.5 -0.469846 2.32899
    vertex 1.5 -0.492404 2.41318
    vertex 0.879879 -0.475197 2.34448
  endloop
endfacet
facet normal -0.00118005 -0.929641 -0.368464
  outer loop
    vertex 1.5 -0.469846 2.32899
    vertex 0.879879 -0.475197 2.34448
    vertex 0.891608 -0.452809 2.28795
  endloop
endfacet
facet normal 0.00312623 -0.906303 -0.422616
  outer loop
    vertex 1.5 -0.433013 2.25
    vertex 1.5 -0.469846 2.32899
    vertex 0.891608 -0.452809 2.28795
  endloop
endfacet
facet normal -0.00126782 -0.878156 -0.478373
  outer loop
    vertex 1.5 -0.433013 2.25
    vertex 0.891608 -0.452809 2.28795
    vertex 0.905718 -0.42388 2.23481
  endloop
endfacet
facet normal 0.00230924 -0.814556 -0.580081
  outer loop
    vertex 1.5 -0.433013 2.25
    vertex 0.905718 -0.42388 2.23481
    vertex 0.921302 -0.388848 2.18568
  endloop
endfacet
facet normal 0.00123557 -0.819151 -0.573576
  outer loop
    vertex 1.5 -0.383022 2.17861
    vertex 1.5 -0.433013 2.25
    vertex 0.921302 -0.388848 2.18568
  endloop
endfacet
facet normal -0.000812838 -0.738254 -0.674523
  outer loop
    vertex 1.5 -0.383022 2.17861
    vertex 0.921302 -0.388848 2.18568
    vertex 0.937416 -0.34821 2.14118
  endloop
endfacet
facet normal 0.00328198 -0.707103 -0.707103
  outer loop
    vertex 1.5 -0.321394 2.11698
    vertex 1.5 -0.383022 2.17861
    vertex 0.937416 -0.34821 2.14118
  endloop
endfacet
facet normal -0.00158088 -0.651562 -0.758594
  outer loop
    vertex 1.5 -0.321394 2.11698
    vertex 0.937416 -0.34821 2.14118
    vertex 0.953156 -0.302479 2.10187
  endloop
endfacet
facet normal 0.00278946 -0.573574 -0.819149
  outer loop
    vertex 1.5 -0.25 2.06699
    vertex 1.5 -0.321394 2.11698
    vertex 0.953156 -0.302479 2.10187
  endloop
endfacet
facet normal 0.000304085 -0.555775 -0.831333
  outer loop
    vertex 1.5 -0.25 2.06699
    vertex 0.953156 -0.302479 2.10187
    vertex 0.96767 -0.252219 2.06828
  endloop
endfacet
facet normal -0.000280393 -0.451065 -0.892491
  outer loop
    vertex 1.5 -0.25 2.06699
    vertex 0.96767 -0.252219 2.06828
    vertex 0.980188 -0.198067 2.0409
  endloop
endfacet
facet normal 0.00325498 -0.422616 -0.906303
  outer loop
    vertex 1.5 -0.17101 2.03015
    vertex 1.5 -0.25 2.06699
    vertex 0.980188 -0.198067 2.0409
  endloop
endfacet
facet normal -0.00180133 -0.339153 -0.940729
  outer loop
    vertex 1.5 -0.17101 2.03015
    vertex 0.980188 -0.198067 2.0409
    vertex 0.990048 -0.14073 2.02021
  endloop
endfacet
facet normal 0.00345994 -0.258817 -0.96592
  outer loop
    vertex 1.5 -0.0868241 2.0076
    vertex 1.5 -0.17101 2.03015
    vertex 0.990048 -0.14073 2.02021
  endloop
endfacet
facet normal -0.000639496 -0.222164 -0.975009
  outer loop
    vertex 1.5 -0.0868241 2.0076
    vertex 0.990048 -0.14073 2.02021
    vertex 0.996707 -0.0810859 2.00662
  endloop
endfacet
facet normal 0.000537509 -0.121916 -0.99254
  outer loop
    vertex 1.5 -0.0868241 2.0076
    vertex 0.996707 -0.0810859 2.00662
    vertex 0.999172 -0.0406972 2.00166
  endloop
endfacet
facet normal 0.00378229 -0.0871551 -0.996188
  outer loop
    vertex 1.5 -1.22461e-016 2
    vertex 1.5 -0.0868241 2.0076
    vertex 0.999172 -0.0406972 2.00166
  endloop
endfacet
facet normal -0 -0.040731 -0.99917
  outer loop
    vertex 1.5 -1.22461e-016 2
    vertex 0.999172 -0.0406972 2.00166
    vertex 1 -1.22461e-016 2
  endloop
endfacet
facet normal 0 0 -1
  outer loop
    vertex -0.939693 -0.34202 0
    vertex -0.766044 -0.642788 0
    vertex -0.866025 -0.5 0
  endloop
endfacet
facet normal 0 0 -1
  outer loop
    vertex -0.173648 -0.984808 0
    vertex -0.34202 -0.939693 0
    vertex -0.5 -0.866025 0
  endloop
endfacet
facet normal 0 0 -1
  outer loop
    vertex -0.766044 0.642788 0
    vertex -0.939693 0.34202 0
    vertex -0.866025 0.5 0
  endloop
endfacet
facet normal 0 0 -1
  outer loop
    vertex 0.766044 -0.642788 0
    vertex 0.642788 -0.766044 0
    vertex 0.5 -0.866025 0
  endloop
endfacet
facet normal 0 0 -1
  outer loop
    vertex -0.5 0.866025 0
    vertex -0.766044 0.642788 0
    vertex -0.642788 0.766044 0
  endloop
endfacet
facet normal 0 0 -1
  outer loop
    vertex 1 -2.22045e-016 0
    vertex 0.5 -0.866025 0
    vertex 0.34202 -0.939693 0
  endloop
endfacet
facet normal 0 0 -1
  outer loop
    vertex 1 -2.22045e-016 0
    vertex 0.866025 -0.5 0
    vertex 0.766044 -0.642788 0
  endloop
endfacet
facet normal 0 0 -1
  outer loop
    vertex 1 -2.22045e-016 0
    vertex 0.939693 -0.34202 0
    vertex 0.866025 -0.5 0
  endloop
endfacet
facet normal 0 0 -1
  outer loop
    vertex 1 -2.22045e-016 0
    vertex 0.984808 -0.173648 0
    vertex 0.939693 -0.34202 0
  endloop
endfacet
facet normal 0 0 -1
  outer loop
    vertex 1 -2.22045e-016 0
    vertex 0.766044 -0.642788 0
    vertex 0.5 -0.866025 0
  endloop
endfacet
facet normal 0 0 -1
  outer loop
    vertex 0.34202 0.939693 0
    vertex 0 1 0
    vertex 0.173648 0.984808 0
  endloop
endfacet
facet normal 0 0 -1
  outer loop
    vertex 0.34202 0.939693 0
    vertex -0.173648 0.984808 0
    vertex 0 1 0
  endloop
endfacet
facet normal 0 0 -1
  outer loop
    vertex 0.5 0.866025 0
    vertex -0.173648 0.984808 0
    vertex 0.34202 0.939693 0
  endloop
endfacet
facet normal 0 0 -1
  outer loop
    vertex 0.866025 0.5 0
    vertex 0.984808 0.173648 0
    vertex 1 -2.22045e-016 0
  endloop
endfacet
facet normal 0 0 -1
  outer loop
    vertex 0.866025 0.5 0
    vertex 0.939693 0.34202 0
    vertex 0.984808 0.173648 0
  endloop
endfacet
facet normal 0 0 -1
  outer loop
    vertex 0.642788 0.766044 0
    vertex 0.766044 0.642788 0
    vertex 0.866025 0.5 0
  endloop
endfacet
facet normal 0 0 -1
  outer loop
    vertex 0.642788 0.766044 0
    vertex -0.34202 0.939693 0
    vertex -0.173648 0.984808 0
  endloop
endfacet
facet normal 0 0 -1
  outer loop
    vertex 0.642788 0.766044 0
    vertex -0.5 0.866025 0
    vertex -0.34202 0.939693 0
  endloop
endfacet
facet normal 0 0 -1
  outer loop
    vertex 0.642788 0.766044 0
    vertex -0.984808 0.173648 0
    vertex -0.939693 0.34202 0
  endloop
endfacet
facet normal 0 0 -1
  outer loop
    vertex 0.642788 0.766044 0
    vertex -1 1.55431e-015 0
    vertex -0.984808 0.173648 0
  endloop
endfacet
facet normal 0 0 -1
  outer loop
    vertex 0.642788 0.766044 0
    vertex -0.984808 -0.173648 0
    vertex -1 1.55431e-015 0
  endloop
endfacet
facet normal 0 0 -1
  outer loop
    vertex 0.642788 0.766044 0
    vertex -0.939693 -0.34202 0
    vertex -0.984808 -0.173648 0
  endloop
endfacet
facet normal 0 0 -1
  outer loop
    vertex 0.642788 0.766044 0
    vertex -0.642788 -0.766044 0
    vertex -0.766044 -0.642788 0
  endloop
endfacet
facet normal 0 0 -1
  outer loop
    vertex 0.642788 0.766044 0
    vertex -0.5 -0.866025 0
    vertex -0.642788 -0.766044 0
  endloop
endfacet
facet normal 0 0 -1
  outer loop
    vertex 0.642788 0.766044 0
    vertex -2.88658e-015 -1 0
    vertex -0.173648 -0.984808 0
  endloop
endfacet
facet normal 0 0 -1
  outer loop
    vertex 0.642788 0.766044 0
    vertex 0.173648 -0.984808 0
    vertex -2.88658e-015 -1 0
  endloop
endfacet
facet normal 0 0 -1
  outer loop
    vertex 0.642788 0.766044 0
    vertex 0.34202 -0.939693 0
    vertex 0.173648 -0.984808 0
  endloop
endfacet
facet normal 0 0 -1
  outer loop
    vertex 0.642788 0.766044 0
    vertex -0.173648 -0.984808 0
    vertex -0.5 -0.866025 0
  endloop
endfacet
facet normal 0 0 -1
  outer loop
    vertex 0.642788 0.766044 0
    vertex -0.766044 -0.642788 0
    vertex -0.939693 -0.34202 0
  endloop
endfacet
facet normal 0 0 -1
  outer loop
    vertex 0.642788 0.766044 0
    vertex -0.939693 0.34202 0
    vertex -0.766044 0.642788 0
  endloop
endfacet
facet normal -0 0 -1
  outer loop
    vertex 0.642788 0.766044 0
    vertex -0.766044 0.642788 0
    vertex -0.5 0.866025 0
  endloop
endfacet
facet normal 0 -0 -1
  outer loop
    vertex 0.642788 0.766044 0
    vertex 1 -2.22045e-016 0
    vertex 0.34202 -0.939693 0
  endloop
endfacet
facet normal 0 0 -1
  outer loop
    vertex 0.642788 0.766044 0
    vertex 0.866025 0.5 0
    vertex 1 -2.22045e-016 0
  endloop
endfacet
facet normal 0 0 -1
  outer loop
    vertex 0.642788 0.766044 0
    vertex -0.173648 0.984808 0
    vertex 0.5 0.866025 0
  endloop
endfacet
facet normal 0 0 1
  outer loop
    vertex -0.939693 -0.34202 17.5
    vertex -0.866025 -0.5 17.5
    vertex -0.766044 -0.642788 17.5
  endloop
endfacet
facet normal 0 0 1
  outer loop
    vertex -0.173648 -0.984808 17.5
    vertex -0.5 -0.866025 17.5
    vertex -0.34202 -0.939693 17.5
  endloop
endfacet
facet normal 0 0 1
  outer loop
    vertex -0.766044 0.642788 17.5
    vertex -0.866025 0.5 17.5
    vertex -0.939693 0.34202 17.5
  endloop
endfacet
facet normal 0 0 1
  outer loop
    vertex 0.766044 -0.642788 17.5
    vertex 0.5 -0.866025 17.5
    vertex 0.642788 -0.766044 17.5
  endloop
endfacet
facet normal 0 0 1
  outer loop
    vertex -0.5 0.866025 17.5
    vertex -0.642788 0.766044 17.5
    vertex -0.766044 0.642788 17.5
  endloop
endfacet
facet normal 0 0 1
  outer loop
    vertex 1 -2.22045e-016 17.5
    vertex 0.34202 -0.939693 17.5
    vertex 0.5 -0.866025 17.5
  endloop
endfacet
facet normal 0 0 1
  outer loop
    vertex 1 -2.22045e-016 17.5
    vertex 0.766044 -0.642788 17.5
    vertex 0.866025 -0.5 17.5
  endloop
endfacet
facet normal 0 0 1
  outer loop
    vertex 1 -2.22045e-016 17.5
    vertex 0.866025 -0.5 17.5
    vertex 0.939693 -0.34202 17.5
  endloop
endfacet
facet normal 0 0 1
  outer loop
    vertex 1 -2.22045e-016 17.5
    vertex 0.939693 -0.34202 17.5
    vertex 0.984808 -0.173648 17.5
  endloop
endfacet
facet normal 0 0 1
  outer loop
    vertex 1 -2.22045e-016 17.5
    vertex 0.5 -0.866025 17.5
    vertex 0.766044 -0.642788 17.5
  endloop
endfacet
facet normal 0 0 1
  outer loop
    vertex 0.34202 0.939693 17.5
    vertex 0.173648 0.984808 17.5
    vertex 0 1 17.5
  endloop
endfacet
facet normal 0 0 1
  outer loop
    vertex 0.34202 0.939693 17.5
    vertex 0 1 17.5
    vertex -0.173648 0.984808 17.5
  endloop
endfacet
facet normal 0 0 1
  outer loop
    vertex 0.5 0.866025 17.5
    vertex 0.34202 0.939693 17.5
    vertex -0.173648 0.984808 17.5
  endloop
endfacet
facet normal 0 0 1
  outer loop
    vertex 0.866025 0.5 17.5
    vertex 1 -2.22045e-016 17.5
    vertex 0.984808 0.173648 17.5
  endloop
endfacet
facet normal 0 0 1
  outer loop
    vertex 0.866025 0.5 17.5
    vertex 0.984808 0.173648 17.5
    vertex 0.939693 0.34202 17.5
  endloop
endfacet
facet normal 0 0 1
  outer loop
    vertex 0.642788 0.766044 17.5
    vertex 0.866025 0.5 17.5
    vertex 0.766044 0.642788 17.5
  endloop
endfacet
facet normal 0 0 1
  outer loop
    vertex 0.642788 0.766044 17.5
    vertex -0.173648 0.984808 17.5
    vertex -0.34202 0.939693 17.5
  endloop
endfacet
facet normal 0 0 1
  outer loop
    vertex 0.642788 0.766044 17.5
    vertex -0.34202 0.939693 17.5
    vertex -0.5 0.866025 17.5
  endloop
endfacet
facet normal 0 0 1
  outer loop
    vertex 0.642788 0.766044 17.5
    vertex -0.939693 0.34202 17.5
    vertex -0.984808 0.173648 17.5
  endloop
endfacet
facet normal 0 0 1
  outer loop
    vertex 0.642788 0.766044 17.5
    vertex -0.984808 0.173648 17.5
    vertex -1 1.55431e-015 17.5
  endloop
endfacet
facet normal 0 0 1
  outer loop
    vertex 0.642788 0.766044 17.5
    vertex -1 1.55431e-015 17.5
    vertex -0.984808 -0.173648 17.5
  endloop
endfacet
facet normal 0 0 1
  outer loop
    vertex 0.642788 0.766044 17.5
    vertex -0.984808 -0.173648 17.5
    vertex -0.939693 -0.34202 17.5
  endloop
endfacet
facet normal 0 0 1
  outer loop
    vertex 0.642788 0.766044 17.5
    vertex -0.766044 -0.642788 17.5
    vertex -0.642788 -0.766044 17.5
  endloop
endfacet
facet normal 0 0 1
  outer loop
    vertex 0.642788 0.766044 17.5
    vertex -0.642788 -0.766044 17.5
    vertex -0.5 -0.866025 17.5
  endloop
endfacet
facet normal 0 0 1
  outer loop
    vertex 0.642788 0.766044 17.5
    vertex -0.173648 -0.984808 17.5
    vertex -2.88658e-015 -1 17.5
  endloop
endfacet
facet normal 0 0 1
  outer loop
    vertex 0.642788 0.766044 17.5
    vertex -2.88658e-015 -1 17.5
    vertex 0.173648 -0.984808 17.5
  endloop
endfacet
facet normal 0 0 1
  outer loop
    vertex 0.642788 0.766044 17.5
    vertex 0.173648 -0.984808 17.5
    vertex 0.34202 -0.939693 17.5
  endloop
endfacet
facet normal 0 0 1
  outer loop
    vertex 0.642788 0.766044 17.5
    vertex -0.5 -0.866025 17.5
    vertex -0.173648 -0.984808 17.5
  endloop
endfacet
facet normal 0 0 1
  outer loop
    vertex 0.642788 0.766044 17.5
    vertex -0.939693 -0.34202 17.5
    vertex -0.766044 -0.642788 17.5
  endloop
endfacet
facet normal 0 0 1
  outer loop
    vertex 0.642788 0.766044 17.5
    vertex -0.766044 0.642788 17.5
    vertex -0.939693 0.34202 17.5
  endloop
endfacet
facet normal 0 0 1
  outer loop
    vertex 0.642788 0.766044 17.5
    vertex -0.5 0.866025 17.5
    vertex -0.766044 0.642788 17.5
  endloop
endfacet
facet normal 0 0 1
  outer loop
    vertex 0.642788 0.766044 17.5
    vertex 0.34202 -0.939693 17.5
    vertex 1 -2.22045e-016 17.5
  endloop
endfacet
facet normal 0 0 1
  outer loop
    vertex 0.642788 0.766044 17.5
    vertex 1 -2.22045e-016 17.5
    vertex 0.866025 0.5 17.5
  endloop
endfacet
facet normal 0 0 1
  outer loop
    vertex 0.642788 0.766044 17.5
    vertex 0.5 0.866025 17.5
    vertex -0.173648 0.984808 17.5
  endloop
endfacet
facet normal -0 0.0667845 0.997767
  outer loop
    vertex -1.5 0 15.5
    vertex -1 0 15.5
    vertex -0.997777 0.0666354 15.4955
  endloop
endfacet
facet normal 0.00187384 0.198845 0.980029
  outer loop
    vertex -1.5 0.0868241 15.4924
    vertex -0.997777 0.0666354 15.4955
    vertex -0.991257 0.131947 15.4823
  endloop
endfacet
facet normal -0.00271683 0.0871554 0.996191
  outer loop
    vertex -1.5 0.0868241 15.4924
    vertex -1.5 0 15.5
    vertex -0.997777 0.0666354 15.4955
  endloop
endfacet
facet normal -0.0037263 0.258817 0.965919
  outer loop
    vertex -1.5 0.17101 15.4698
    vertex -1.5 0.0868241 15.4924
    vertex -0.991257 0.131947 15.4823
  endloop
endfacet
facet normal 0.00202465 0.327059 0.945002
  outer loop
    vertex -1.5 0.17101 15.4698
    vertex -0.991257 0.131947 15.4823
    vertex -0.980865 0.19469 15.4605
  endloop
endfacet
facet normal -0.00302796 0.422616 0.906304
  outer loop
    vertex -1.5 0.25 15.433
    vertex -1.5 0.17101 15.4698
    vertex -0.980865 0.19469 15.4605
  endloop
endfacet
facet normal 0.000499862 0.449298 0.893382
  outer loop
    vertex -1.5 0.25 15.433
    vertex -0.980865 0.19469 15.4605
    vertex -0.967278 0.253717 15.4308
  endloop
endfacet
facet normal -0.0005674 0.563159 0.826348
  outer loop
    vertex -1.5 0.25 15.433
    vertex -0.967278 0.253717 15.4308
    vertex -0.951351 0.308108 15.3938
  endloop
endfacet
facet normal -0.00218514 0.573575 0.81915
  outer loop
    vertex -1.5 0.321394 15.383
    vertex -1.5 0.25 15.433
    vertex -0.951351 0.308108 15.3938
  endloop
endfacet
facet normal 0.00141704 0.664264 0.747496
  outer loop
    vertex -1.5 0.321394 15.383
    vertex -0.951351 0.308108 15.3938
    vertex -0.934821 0.355119 15.352
  endloop
endfacet
facet normal -0.00335773 0.707103 0.707103
  outer loop
    vertex -1.5 0.383022 15.3214
    vertex -1.5 0.321394 15.383
    vertex -0.934821 0.355119 15.352
  endloop
endfacet
facet normal 0.00135719 0.751133 0.660149
  outer loop
    vertex -1.5 0.383022 15.3214
    vertex -0.934821 0.355119 15.352
    vertex -0.918729 0.394888 15.3067
  endloop
endfacet
facet normal -0.00222023 0.81915 0.573575
  outer loop
    vertex -1.5 0.433013 15.25
    vertex -1.5 0.383022 15.3214
    vertex -0.918729 0.394888 15.3067
  endloop
endfacet
facet normal -0.000910856 0.825491 0.564415
  outer loop
    vertex -1.5 0.433013 15.25
    vertex -0.918729 0.394888 15.3067
    vertex -0.90332 0.428967 15.2569
  endloop
endfacet
facet normal 0.00070114 0.88739 0.461019
  outer loop
    vertex -1.5 0.433013 15.25
    vertex -0.90332 0.428967 15.2569
    vertex -0.889534 0.456869 15.2032
  endloop
endfacet
facet normal -0.00298508 0.906304 0.422616
  outer loop
    vertex -1.5 0.469846 15.171
    vertex -1.5 0.433013 15.25
    vertex -0.889534 0.456869 15.2032
  endloop
endfacet
facet normal 0.00147324 0.936674 0.3502
  outer loop
    vertex -1.5 0.469846 15.171
    vertex -0.889534 0.456869 15.2032
    vertex -0.87827 0.478165 15.1461
  endloop
endfacet
facet normal -0.00257271 0.965923 0.258818
  outer loop
    vertex -1.5 0.492404 15.0868
    vertex -1.5 0.469846 15.171
    vertex -0.87827 0.478165 15.1461
  endloop
endfacet
facet normal 1.34003e-005 0.972412 0.233272
  outer loop
    vertex -1.5 0.492404 15.0868
    vertex -0.87827 0.478165 15.1461
    vertex -0.870353 0.492428 15.0867
  endloop
endfacet
facet normal -1.34987e-005 0.993634 0.11266
  outer loop
    vertex -1.5 0.492404 15.0868
    vertex -0.870353 0.492428 15.0867
    vertex -0.866408 0.499336 15.0258
  endloop
endfacet
facet normal -0.00249953 0.996192 0.0871555
  outer loop
    vertex -1.5 0.5 15
    vertex -1.5 0.492404 15.0868
    vertex -0.866408 0.499336 15.0258
  endloop
endfacet
facet normal 0.00145066 0.99995 -0.00990148
  outer loop
    vertex -1.5 0.5 15
    vertex -0.866408 0.499336 15.0258
    vertex -0.866758 0.498728 14.9644
  endloop
endfacet
facet normal -0.00290437 0.99619 -0.0871554
  outer loop
    vertex -1.5 0.492404 14.9132
    vertex -1.5 0.5 15
    vertex -0.866758 0.498728 14.9644
  endloop
endfacet
facet normal 0.000797716 0.991204 -0.132337
  outer loop
    vertex -1.5 0.492404 14.9132
    vertex -0.866758 0.498728 14.9644
    vertex -0.871373 0.49062 14.9036
  endloop
endfacet
facet normal -0.00109427 0.967664 -0.252241
  outer loop
    vertex -1.5 0.492404 14.9132
    vertex -0.871373 0.49062 14.9036
    vertex -0.879879 0.475197 14.8445
  endloop
endfacet
facet normal -0.00187128 0.965924 -0.258819
  outer loop
    vertex -1.5 0.469846 14.829
    vertex -1.5 0.492404 14.9132
    vertex -0.879879 0.475197 14.8445
  endloop
endfacet
facet normal 0.00118006 0.929642 -0.368463
  outer loop
    vertex -1.5 0.469846 14.829
    vertex -0.879879 0.475197 14.8445
    vertex -0.891608 0.452809 14.788
  endloop
endfacet
facet normal -0.00312623 0.906303 -0.422616
  outer loop
    vertex -1.5 0.433013 14.75
    vertex -1.5 0.469846 14.829
    vertex -0.891608 0.452809 14.788
  endloop
endfacet
facet normal 0.00126781 0.878156 -0.478373
  outer loop
    vertex -1.5 0.433013 14.75
    vertex -0.891608 0.452809 14.788
    vertex -0.905718 0.42388 14.7348
  endloop
endfacet
facet normal -0.00230919 0.814556 -0.58008
  outer loop
    vertex -1.5 0.433013 14.75
    vertex -0.905718 0.42388 14.7348
    vertex -0.921302 0.388849 14.6857
  endloop
endfacet
facet normal 0.000812863 0.738254 -0.674522
  outer loop
    vertex -1.5 0.383022 14.6786
    vertex -0.921302 0.388849 14.6857
    vertex -0.937416 0.348211 14.6412
  endloop
endfacet
facet normal -0.00123561 0.819151 -0.573576
  outer loop
    vertex -1.5 0.383022 14.6786
    vertex -1.5 0.433013 14.75
    vertex -0.921302 0.388849 14.6857
  endloop
endfacet
facet normal 0.00158086 0.651563 -0.758593
  outer loop
    vertex -1.5 0.321394 14.617
    vertex -0.937416 0.348211 14.6412
    vertex -0.953156 0.302479 14.6019
  endloop
endfacet
facet normal -0.00328199 0.707103 -0.707103
  outer loop
    vertex -1.5 0.321394 14.617
    vertex -1.5 0.383022 14.6786
    vertex -0.937416 0.348211 14.6412
  endloop
endfacet
facet normal -0.000304154 0.555776 -0.831332
  outer loop
    vertex -1.5 0.25 14.567
    vertex -0.953156 0.302479 14.6019
    vertex -0.96767 0.252219 14.5683
  endloop
endfacet
facet normal -0.00278942 0.573574 -0.819149
  outer loop
    vertex -1.5 0.25 14.567
    vertex -1.5 0.321394 14.617
    vertex -0.953156 0.302479 14.6019
  endloop
endfacet
facet normal 0.000280452 0.451066 -0.89249
  outer loop
    vertex -1.5 0.25 14.567
    vertex -0.96767 0.252219 14.5683
    vertex -0.980188 0.198068 14.5409
  endloop
endfacet
facet normal 0.00180133 0.339155 -0.940729
  outer loop
    vertex -1.5 0.17101 14.5302
    vertex -0.980188 0.198068 14.5409
    vertex -0.990048 0.14073 14.5202
  endloop
endfacet
facet normal -0.00325501 0.422616 -0.906303
  outer loop
    vertex -1.5 0.17101 14.5302
    vertex -1.5 0.25 14.567
    vertex -0.980188 0.198068 14.5409
  endloop
endfacet
facet normal 0.000639417 0.222165 -0.975009
  outer loop
    vertex -1.5 0.0868241 14.5076
    vertex -0.990048 0.14073 14.5202
    vertex -0.996707 0.0810866 14.5066
  endloop
endfacet
facet normal -0.000775684 0.10141 -0.994844
  outer loop
    vertex -1.5 0.0868241 14.5076
    vertex -0.996707 0.0810866 14.5066
    vertex -0.999798 0.0200939 14.5004
  endloop
endfacet
facet normal -0.00345991 0.258817 -0.96592
  outer loop
    vertex -1.5 0.0868241 14.5076
    vertex -1.5 0.17101 14.5302
    vertex -0.990048 0.14073 14.5202
  endloop
endfacet
facet normal 0.001658 -0.0211752 -0.999774
  outer loop
    vertex -1.5 7.27364e-016 14.5
    vertex -0.999798 0.0200939 14.5004
    vertex -0.999149 -0.0412468 14.5017
  endloop
endfacet
facet normal -0.00269672 0.0871554 -0.996191
  outer loop
    vertex -1.5 7.27364e-016 14.5
    vertex -1.5 0.0868241 14.5076
    vertex -0.999798 0.0200939 14.5004
  endloop
endfacet
facet normal 0.00139799 -0.143301 -0.989678
  outer loop
    vertex -1.5 -0.0868241 14.5076
    vertex -0.999149 -0.0412468 14.5017
    vertex -0.994796 -0.101884 14.5105
  endloop
endfacet
facet normal -0.00378788 -0.0871551 -0.996188
  outer loop
    vertex -1.5 -0.0868241 14.5076
    vertex -1.5 7.27364e-016 14.5
    vertex -0.999149 -0.0412468 14.5017
  endloop
endfacet
facet normal -0.00150669 -0.263398 -0.964686
  outer loop
    vertex -1.5 -0.17101 14.5302
    vertex -0.994796 -0.101884 14.5105
    vertex -0.986981 -0.160837 14.5266
  endloop
endfacet
facet normal 0.00104906 -0.37853 -0.925588
  outer loop
    vertex -1.5 -0.17101 14.5302
    vertex -0.986981 -0.160837 14.5266
    vertex -0.976135 -0.217164 14.5496
  endloop
endfacet
facet normal -0.00218152 -0.258818 -0.965924
  outer loop
    vertex -1.5 -0.17101 14.5302
    vertex -1.5 -0.0868241 14.5076
    vertex -0.994796 -0.101884 14.5105
  endloop
endfacet
facet normal 0.00163888 -0.487794 -0.872957
  outer loop
    vertex -1.5 -0.25 14.567
    vertex -0.976135 -0.217164 14.5496
    vertex -0.962847 -0.270047 14.5792
  endloop
endfacet
facet normal -0.00355177 -0.422616 -0.906302
  outer loop
    vertex -1.5 -0.25 14.567
    vertex -1.5 -0.17101 14.5302
    vertex -0.976135 -0.217164 14.5496
  endloop
endfacet
facet normal -0.000387143 -0.590016 -0.807392
  outer loop
    vertex -1.5 -0.321394 14.617
    vertex -0.962847 -0.270047 14.5792
    vertex -0.947817 -0.318814 14.6148
  endloop
endfacet
facet normal 0.000345637 -0.682831 -0.730576
  outer loop
    vertex -1.5 -0.321394 14.617
    vertex -0.947817 -0.318814 14.6148
    vertex -0.93185 -0.362843 14.656
  endloop
endfacet
facet normal -0.00278573 -0.573574 -0.819149
  outer loop
    vertex -1.5 -0.321394 14.617
    vertex -1.5 -0.25 14.567
    vertex -0.962847 -0.270047 14.5792
  endloop
endfacet
facet normal 0.00157795 -0.76557 -0.643351
  outer loop
    vertex -1.5 -0.383022 14.6786
    vertex -0.93185 -0.362843 14.656
    vertex -0.915813 -0.401605 14.7022
  endloop
endfacet
facet normal -0.00303675 -0.707104 -0.707104
  outer loop
    vertex -1.5 -0.383022 14.6786
    vertex -1.5 -0.321394 14.617
    vertex -0.93185 -0.362843 14.656
  endloop
endfacet
facet normal -0.00293878 -0.819149 -0.573574
  outer loop
    vertex -1.5 -0.433013 14.75
    vertex -1.5 -0.383022 14.6786
    vertex -0.915813 -0.401605 14.7022
  endloop
endfacet
facet normal 0.000301657 -0.837674 -0.546171
  outer loop
    vertex -1.5 -0.433013 14.75
    vertex -0.915813 -0.401605 14.7022
    vertex -0.900633 -0.434581 14.7527
  endloop
endfacet
facet normal -0.000335884 -0.897562 -0.440887
  outer loop
    vertex -1.5 -0.433013 14.75
    vertex -0.900633 -0.434581 14.7527
    vertex -0.887245 -0.461299 14.8071
  endloop
endfacet
facet normal -0.00244258 -0.906305 -0.422617
  outer loop
    vertex -1.5 -0.469846 14.829
    vertex -1.5 -0.433013 14.75
    vertex -0.887245 -0.461299 14.8071
  endloop
endfacet
facet normal 0.00142604 -0.944301 -0.329079
  outer loop
    vertex -1.5 -0.469846 14.829
    vertex -0.887245 -0.461299 14.8071
    vertex -0.876539 -0.481332 14.8646
  endloop
endfacet
facet normal -0.00299085 -0.965922 -0.258818
  outer loop
    vertex -1.5 -0.492404 14.9132
    vertex -1.5 -0.469846 14.829
    vertex -0.876539 -0.481332 14.8646
  endloop
endfacet
facet normal 0.000903792 -0.977399 -0.211399
  outer loop
    vertex -1.5 -0.492404 14.9132
    vertex -0.876539 -0.481332 14.8646
    vertex -0.869314 -0.49426 14.9245
  endloop
endfacet
facet normal -0.0013193 -0.995931 -0.0901058
  outer loop
    vertex -1.5 -0.492404 14.9132
    vertex -0.869314 -0.49426 14.9245
    vertex -0.866146 -0.499791 14.9855
  endloop
endfacet
facet normal -0.00165918 -0.996193 -0.0871556
  outer loop
    vertex -1.5 -0.5 15
    vertex -1.5 -0.492404 14.9132
    vertex -0.866146 -0.499791 14.9855
  endloop
endfacet
facet normal 0.00107148 -0.99947 0.0325314
  outer loop
    vertex -1.5 -0.5 15
    vertex -0.866146 -0.499791 14.9855
    vertex -0.867295 -0.497795 15.0469
  endloop
endfacet
facet normal -0.00298951 -0.99619 0.0871554
  outer loop
    vertex -1.5 -0.492404 15.0868
    vertex -1.5 -0.5 15
    vertex -0.867295 -0.497795 15.0469
  endloop
endfacet
facet normal 0.00134536 -0.987953 0.15475
  outer loop
    vertex -1.5 -0.492404 15.0868
    vertex -0.867295 -0.497795 15.0469
    vertex -0.872664 -0.488321 15.1074
  endloop
endfacet
facet normal -0.00221761 -0.965923 0.258818
  outer loop
    vertex -1.5 -0.469846 15.171
    vertex -1.5 -0.492404 15.0868
    vertex -0.872664 -0.488321 15.1074
  endloop
endfacet
facet normal -0.000552249 -0.961721 0.274031
  outer loop
    vertex -1.5 -0.469846 15.171
    vertex -0.872664 -0.488321 15.1074
    vertex -0.881822 -0.471583 15.1662
  endloop
endfacet
facet normal 0.000463947 -0.921205 0.389078
  outer loop
    vertex -1.5 -0.469846 15.171
    vertex -0.881822 -0.471583 15.1662
    vertex -0.894055 -0.447958 15.2221
  endloop
endfacet
facet normal -0.00290279 -0.906304 0.422616
  outer loop
    vertex -1.5 -0.433013 15.25
    vertex -1.5 -0.469846 15.171
    vertex -0.894055 -0.447958 15.2221
  endloop
endfacet
facet normal 0.00152576 -0.867232 0.497902
  outer loop
    vertex -1.5 -0.433013 15.25
    vertex -0.894055 -0.447958 15.2221
    vertex -0.908507 -0.41787 15.2746
  endloop
endfacet
facet normal -0.00284774 -0.819149 0.573574
  outer loop
    vertex -1.5 -0.383022 15.3214
    vertex -1.5 -0.433013 15.25
    vertex -0.908507 -0.41787 15.2746
  endloop
endfacet
facet normal 0.000197703 -0.801062 0.598581
  outer loop
    vertex -1.5 -0.383022 15.3214
    vertex -0.908507 -0.41787 15.2746
    vertex -0.92426 -0.381765 15.3229
  endloop
endfacet
facet normal -0.000210681 -0.723268 0.690568
  outer loop
    vertex -1.5 -0.383022 15.3214
    vertex -0.92426 -0.381765 15.3229
    vertex -0.940371 -0.34015 15.3665
  endloop
endfacet
facet normal -0.00278084 -0.707104 0.707104
  outer loop
    vertex -1.5 -0.321394 15.383
    vertex -1.5 -0.383022 15.3214
    vertex -0.940371 -0.34015 15.3665
  endloop
endfacet
facet normal 0.00159819 -0.634524 0.772902
  outer loop
    vertex -1.5 -0.321394 15.383
    vertex -0.940371 -0.34015 15.3665
    vertex -0.955948 -0.293537 15.4048
  endloop
endfacet
facet normal -0.00337092 -0.573573 0.819147
  outer loop
    vertex -1.5 -0.25 15.433
    vertex -1.5 -0.321394 15.383
    vertex -0.955948 -0.293537 15.4048
  endloop
endfacet
facet normal 0.000839799 -0.536864 0.843668
  outer loop
    vertex -1.5 -0.25 15.433
    vertex -0.955948 -0.293537 15.4048
    vertex -0.970149 -0.24251 15.4373
  endloop
endfacet
facet normal -0.00112232 -0.431219 0.902247
  outer loop
    vertex -1.5 -0.25 15.433
    vertex -0.970149 -0.24251 15.4373
    vertex -0.982224 -0.187713 15.4634
  endloop
endfacet
facet normal -0.00239549 -0.422617 0.906305
  outer loop
    vertex -1.5 -0.17101 15.4698
    vertex -1.5 -0.25 15.433
    vertex -0.982224 -0.187713 15.4634
  endloop
endfacet
facet normal 0.00149856 -0.317967 0.948101
  outer loop
    vertex -1.5 -0.17101 15.4698
    vertex -0.982224 -0.187713 15.4634
    vertex -0.99153 -0.129879 15.4828
  endloop
endfacet
facet normal -0.00374142 -0.258817 0.965919
  outer loop
    vertex -1.5 -0.0868241 15.4924
    vertex -1.5 -0.17101 15.4698
    vertex -0.99153 -0.129879 15.4828
  endloop
endfacet
facet normal 0.00149808 -0.200022 0.97979
  outer loop
    vertex -1.5 -0.0868241 15.4924
    vertex -0.99153 -0.129879 15.4828
    vertex -0.997553 -0.0699124 15.4951
  endloop
endfacet
facet normal -0.0017744 -0.105125 0.994457
  outer loop
    vertex -1.5 -0.0868241 15.4924
    vertex -0.997553 -0.0699124 15.4951
    vertex -0.999385 -0.0350558 15.4988
  endloop
endfacet
facet normal -0.00365463 -0.0871552 0.996188
  outer loop
    vertex -1.5 -1.22461e-016 15.5
    vertex -1.5 -0.0868241 15.4924
    vertex -0.999385 -0.0350558 15.4988
  endloop
endfacet
facet normal 0 -0.0350774 0.999385
  outer loop
    vertex -1.5 -1.22461e-016 15.5
    vertex -0.999385 -0.0350558 15.4988
    vertex -1 -1.22461e-016 15.5
  endloop
endfacet
facet normal 1 0 0
  outer loop
    vertex 1.5 -0.321394 2.11698
    vertex 1.5 -0.433013 2.25
    vertex 1.5 -0.383022 2.17861
  endloop
endfacet
facet normal 1 0 0
  outer loop
    vertex 1.5 0.433013 2.75
    vertex 1.5 0.383022 2.82139
    vertex 1.5 0.321394 2.88302
  endloop
endfacet
facet normal 1 0 0
  outer loop
    vertex 1.5 -1.11022e-016 2
    vertex 1.5 -0.17101 2.03015
    vertex 1.5 -0.0868241 2.0076
  endloop
endfacet
facet normal 1 0 0
  outer loop
    vertex 1.5 0.25 2.06699
    vertex 1.5 -1.11022e-016 2
    vertex 1.5 0.0868241 2.0076
  endloop
endfacet
facet normal 1 0 0
  outer loop
    vertex 1.5 0.25 2.06699
    vertex 1.5 0.0868241 2.0076
    vertex 1.5 0.17101 2.03015
  endloop
endfacet
facet normal 1 0 0
  outer loop
    vertex 1.5 0.383022 2.17861
    vertex 1.5 0.25 2.06699
    vertex 1.5 0.321394 2.11698
  endloop
endfacet
facet normal 1 0 0
  outer loop
    vertex 1.5 0.383022 2.17861
    vertex 1.5 0.433013 2.25
    vertex 1.5 0.469846 2.32899
  endloop
endfacet
facet normal 1 0 0
  outer loop
    vertex 1.5 0.383022 2.17861
    vertex 1.5 0.469846 2.32899
    vertex 1.5 0.492404 2.41318
  endloop
endfacet
facet normal 1 0 0
  outer loop
    vertex 1.5 0.383022 2.17861
    vertex 1.5 0.492404 2.41318
    vertex 1.5 0.5 2.5
  endloop
endfacet
facet normal 1 0 0
  outer loop
    vertex 1.5 0.383022 2.17861
    vertex 1.5 0.5 2.5
    vertex 1.5 0.492404 2.58682
  endloop
endfacet
facet normal 1 0 0
  outer loop
    vertex 1.5 0.383022 2.17861
    vertex 1.5 0.492404 2.58682
    vertex 1.5 0.469846 2.67101
  endloop
endfacet
facet normal 1 0 0
  outer loop
    vertex 1.5 0.383022 2.17861
    vertex 1.5 0.469846 2.67101
    vertex 1.5 0.433013 2.75
  endloop
endfacet
facet normal 1 0 0
  outer loop
    vertex 1.5 0.383022 2.17861
    vertex 1.5 0.321394 2.88302
    vertex 1.5 0.25 2.93301
  endloop
endfacet
facet normal 1 0 0
  outer loop
    vertex 1.5 0.383022 2.17861
    vertex 1.5 0.25 2.93301
    vertex 1.5 0.17101 2.96985
  endloop
endfacet
facet normal 1 0 0
  outer loop
    vertex 1.5 0.383022 2.17861
    vertex 1.5 0.17101 2.96985
    vertex 1.5 0.0868241 2.9924
  endloop
endfacet
facet normal 1 0 0
  outer loop
    vertex 1.5 0.383022 2.17861
    vertex 1.5 0.0868241 2.9924
    vertex 1.5 7.77156e-016 3
  endloop
endfacet
facet normal 1 0 0
  outer loop
    vertex 1.5 0.383022 2.17861
    vertex 1.5 7.77156e-016 3
    vertex 1.5 -0.0868241 2.9924
  endloop
endfacet
facet normal 1 0 0
  outer loop
    vertex 1.5 0.383022 2.17861
    vertex 1.5 -0.0868241 2.9924
    vertex 1.5 -0.17101 2.96985
  endloop
endfacet
facet normal 1 0 0
  outer loop
    vertex 1.5 0.383022 2.17861
    vertex 1.5 -0.17101 2.96985
    vertex 1.5 -0.25 2.93301
  endloop
endfacet
facet normal 1 0 0
  outer loop
    vertex 1.5 0.383022 2.17861
    vertex 1.5 -0.25 2.93301
    vertex 1.5 -0.321394 2.88302
  endloop
endfacet
facet normal 1 0 0
  outer loop
    vertex 1.5 0.383022 2.17861
    vertex 1.5 -0.321394 2.88302
    vertex 1.5 -0.383022 2.82139
  endloop
endfacet
facet normal 1 0 0
  outer loop
    vertex 1.5 0.383022 2.17861
    vertex 1.5 -0.383022 2.82139
    vertex 1.5 -0.433013 2.75
  endloop
endfacet
facet normal 1 0 0
  outer loop
    vertex 1.5 0.383022 2.17861
    vertex 1.5 -0.433013 2.75
    vertex 1.5 -0.469846 2.67101
  endloop
endfacet
facet normal 1 0 0
  outer loop
    vertex 1.5 0.383022 2.17861
    vertex 1.5 -0.469846 2.67101
    vertex 1.5 -0.492404 2.58682
  endloop
endfacet
facet normal 1 0 0
  outer loop
    vertex 1.5 0.383022 2.17861
    vertex 1.5 -0.492404 2.58682
    vertex 1.5 -0.5 2.5
  endloop
endfacet
facet normal 1 0 0
  outer loop
    vertex 1.5 0.383022 2.17861
    vertex 1.5 -0.5 2.5
    vertex 1.5 -0.492404 2.41318
  endloop
endfacet
facet normal 1 0 0
  outer loop
    vertex 1.5 0.383022 2.17861
    vertex 1.5 -0.492404 2.41318
    vertex 1.5 -0.469846 2.32899
  endloop
endfacet
facet normal 1 0 0
  outer loop
    vertex 1.5 0.383022 2.17861
    vertex 1.5 -0.469846 2.32899
    vertex 1.5 -0.433013 2.25
  endloop
endfacet
facet normal 1 0 0
  outer loop
    vertex 1.5 0.383022 2.17861
    vertex 1.5 -0.321394 2.11698
    vertex 1.5 -0.25 2.06699
  endloop
endfacet
facet normal 1 0 0
  outer loop
    vertex 1.5 0.383022 2.17861
    vertex 1.5 -0.25 2.06699
    vertex 1.5 -0.17101 2.03015
  endloop
endfacet
facet normal 1 0 0
  outer loop
    vertex 1.5 0.383022 2.17861
    vertex 1.5 -0.433013 2.25
    vertex 1.5 -0.321394 2.11698
  endloop
endfacet
facet normal 1 0 0
  outer loop
    vertex 1.5 0.383022 2.17861
    vertex 1.5 -0.17101 2.03015
    vertex 1.5 -1.11022e-016 2
  endloop
endfacet
facet normal 1 0 -0
  outer loop
    vertex 1.5 0.383022 2.17861
    vertex 1.5 0.433013 2.75
    vertex 1.5 0.321394 2.88302
  endloop
endfacet
facet normal 1 0 0
  outer loop
    vertex 1.5 0.383022 2.17861
    vertex 1.5 -1.11022e-016 2
    vertex 1.5 0.25 2.06699
  endloop
endfacet
facet normal -1 0 0
  outer loop
    vertex -1.5 -0.383022 15.3214
    vertex -1.5 -0.469846 15.171
    vertex -1.5 -0.433013 15.25
  endloop
endfacet
facet normal -1 0 0
  outer loop
    vertex -1.5 -0.17101 15.4698
    vertex -1.5 -0.321394 15.383
    vertex -1.5 -0.25 15.433
  endloop
endfacet
facet normal -1 0 0
  outer loop
    vertex -1.5 -1.11022e-016 15.5
    vertex -1.5 -0.17101 15.4698
    vertex -1.5 -0.0868241 15.4924
  endloop
endfacet
facet normal -1 0 0
  outer loop
    vertex -1.5 0.17101 15.4698
    vertex -1.5 -1.11022e-016 15.5
    vertex -1.5 0.0868241 15.4924
  endloop
endfacet
facet normal -1 0 0
  outer loop
    vertex -1.5 0.321394 15.383
    vertex -1.5 0.17101 15.4698
    vertex -1.5 0.25 15.433
  endloop
endfacet
facet normal -1 0 0
  outer loop
    vertex -1.5 0.321394 15.383
    vertex -1.5 0.383022 15.3214
    vertex -1.5 0.433013 15.25
  endloop
endfacet
facet normal -1 0 0
  outer loop
    vertex -1.5 0.321394 15.383
    vertex -1.5 0.433013 15.25
    vertex -1.5 0.469846 15.171
  endloop
endfacet
facet normal -1 0 0
  outer loop
    vertex -1.5 0.321394 15.383
    vertex -1.5 0.469846 15.171
    vertex -1.5 0.492404 15.0868
  endloop
endfacet
facet normal -1 0 0
  outer loop
    vertex -1.5 0.321394 15.383
    vertex -1.5 0.492404 15.0868
    vertex -1.5 0.5 15
  endloop
endfacet
facet normal -1 0 0
  outer loop
    vertex -1.5 0.321394 15.383
    vertex -1.5 0.5 15
    vertex -1.5 0.492404 14.9132
  endloop
endfacet
facet normal -1 0 0
  outer loop
    vertex -1.5 0.321394 15.383
    vertex -1.5 0.492404 14.9132
    vertex -1.5 0.469846 14.829
  endloop
endfacet
facet normal -1 0 0
  outer loop
    vertex -1.5 0.321394 15.383
    vertex -1.5 0.469846 14.829
    vertex -1.5 0.433013 14.75
  endloop
endfacet
facet normal -1 0 0
  outer loop
    vertex -1.5 0.321394 15.383
    vertex -1.5 0.433013 14.75
    vertex -1.5 0.383022 14.6786
  endloop
endfacet
facet normal -1 0 0
  outer loop
    vertex -1.5 0.321394 15.383
    vertex -1.5 0.383022 14.6786
    vertex -1.5 0.321394 14.617
  endloop
endfacet
facet normal -1 0 -0
  outer loop
    vertex -1.5 0.321394 15.383
    vertex -1.5 0.321394 14.617
    vertex -1.5 0.25 14.567
  endloop
endfacet
facet normal -1 0 0
  outer loop
    vertex -1.5 0.321394 15.383
    vertex -1.5 0.25 14.567
    vertex -1.5 0.17101 14.5302
  endloop
endfacet
facet normal -1 0 0
  outer loop
    vertex -1.5 0.321394 15.383
    vertex -1.5 0.17101 14.5302
    vertex -1.5 0.0868241 14.5076
  endloop
endfacet
facet normal -1 0 0
  outer loop
    vertex -1.5 0.321394 15.383
    vertex -1.5 0.0868241 14.5076
    vertex -1.5 7.77156e-016 14.5
  endloop
endfacet
facet normal -1 0 0
  outer loop
    vertex -1.5 0.321394 15.383
    vertex -1.5 7.77156e-016 14.5
    vertex -1.5 -0.0868241 14.5076
  endloop
endfacet
facet normal -1 0 0
  outer loop
    vertex -1.5 0.321394 15.383
    vertex -1.5 -0.0868241 14.5076
    vertex -1.5 -0.17101 14.5302
  endloop
endfacet
facet normal -1 0 0
  outer loop
    vertex -1.5 0.321394 15.383
    vertex -1.5 -0.17101 14.5302
    vertex -1.5 -0.25 14.567
  endloop
endfacet
facet normal -1 0 0
  outer loop
    vertex -1.5 0.321394 15.383
    vertex -1.5 -0.25 14.567
    vertex -1.5 -0.321394 14.617
  endloop
endfacet
facet normal -1 0 0
  outer loop
    vertex -1.5 0.321394 15.383
    vertex -1.5 -0.321394 14.617
    vertex -1.5 -0.383022 14.6786
  endloop
endfacet
facet normal -1 0 0
  outer loop
    vertex -1.5 0.321394 15.383
    vertex -1.5 -0.383022 14.6786
    vertex -1.5 -0.433013 14.75
  endloop
endfacet
facet normal -1 0 0
  outer loop
    vertex -1.5 0.321394 15.383
    vertex -1.5 -0.433013 14.75
    vertex -1.5 -0.469846 14.829
  endloop
endfacet
facet normal -1 0 0
  outer loop
    vertex -1.5 0.321394 15.383
    vertex -1.5 -0.469846 14.829
    vertex -1.5 -0.492404 14.9132
  endloop
endfacet
facet normal -1 0 0
  outer loop
    vertex -1.5 0.321394 15.383
    vertex -1.5 -0.492404 14.9132
    vertex -1.5 -0.5 15
  endloop
endfacet
facet normal -1 0 0
  outer loop
    vertex -1.5 0.321394 15.383
    vertex -1.5 -0.5 15
    vertex -1.5 -0.492404 15.0868
  endloop
endfacet
facet normal -1 0 0
  outer loop
    vertex -1.5 0.321394 15.383
    vertex -1.5 -0.492404 15.0868
    vertex -1.5 -0.469846 15.171
  endloop
endfacet
facet normal -1 0 0
  outer loop
    vertex -1.5 0.321394 15.383
    vertex -1.5 -0.383022 15.3214
    vertex -1.5 -0.321394 15.383
  endloop
endfacet
facet normal -1 0 0
  outer loop
    vertex -1.5 0.321394 15.383
    vertex -1.5 -0.469846 15.171
    vertex -1.5 -0.383022 15.3214
  endloop
endfacet
facet normal -1 -0 0
  outer loop
    vertex -1.5 0.321394 15.383
    vertex -1.5 -0.321394 15.383
    vertex -1.5 -0.17101 15.4698
  endloop
endfacet
facet normal -1 0 0
  outer loop
    vertex -1.5 0.321394 15.383
    vertex -1.5 -0.17101 15.4698
    vertex -1.5 -1.11022e-016 15.5
  endloop
endfacet
facet normal -1 0 0
  outer loop
    vertex -1.5 0.321394 15.383
    vertex -1.5 -1.11022e-016 15.5
    vertex -1.5 0.17101 15.4698
  endloop
endfacet
endsolid Created by Gmsh
